/* XPM */
static char *e4c466451f7d4716b19c939300a9ff33[] = {
/* columns rows colors chars-per-pixel */
"64 64 176 2 ",
"   c #4B4D73",
".  c #44486F",
"X  c #424A75",
"o  c #454974",
"O  c #464974",
"+  c #444972",
"@  c #444A74",
"#  c #454B75",
"$  c #454B74",
"%  c #464C77",
"&  c #454A74",
"*  c #434973",
"=  c #474C75",
"-  c #454A73",
";  c #464B75",
":  c #444973",
">  c #464B74",
",  c #464A74",
"<  c #474B74",
"1  c #454973",
"2  c #464973",
"3  c #474A74",
"4  c #474A72",
"5  c #454971",
"6  c #454972",
"7  c #464A73",
"8  c #454A72",
"9  c #464A72",
"0  c #454B72",
"q  c #464971",
"w  c #474A73",
"e  c #474971",
"r  c #464872",
"t  c #454872",
"y  c #464A71",
"u  c #444E6F",
"i  c #444A70",
"p  c #434673",
"a  c #434873",
"s  c #444772",
"d  c #434772",
"f  c #444872",
"g  c #444971",
"h  c #454871",
"j  c #42476F",
"k  c #454970",
"l  c #454870",
"z  c #454772",
"x  c #484B73",
"c  c #444774",
"v  c #454773",
"b  c #454873",
"n  c #444873",
"m  c #474B75",
"M  c #474A75",
"N  c #464873",
"B  c #474973",
"V  c #474C74",
"C  c #474873",
"Z  c #444870",
"A  c #464972",
"S  c #474972",
"D  c #474872",
"F  c #474772",
"G  c #464A75",
"H  c #484C75",
"J  c #464671",
"K  c #474B76",
"L  c #464B73",
"P  c #444771",
"I  c #494B75",
"U  c #444A71",
"Y  c #484B74",
"T  c #444770",
"R  c #484A74",
"E  c #484B75",
"W  c #464C75",
"Q  c #454B73",
"!  c #464975",
"~  c #474975",
"^  c #444A73",
"/  c #444974",
"(  c #434872",
")  c #494B76",
"_  c #474974",
"`  c #444874",
"'  c #484A75",
"]  c #484B76",
"[  c #484C76",
"{  c #454874",
"}  c #474A76",
"|  c #464773",
" . c #484976",
".. c #474C76",
"X. c #474B73",
"o. c #454975",
"O. c #484D76",
"+. c #434770",
"@. c #444871",
"#. c #464875",
"$. c #454A75",
"%. c #464B76",
"&. c #464874",
"*. c #444875",
"=. c #454875",
"-. c #464A77",
";. c #454976",
":. c #474B77",
">. c #434671",
",. c #464A76",
"<. c #484C77",
"1. c #434874",
"2. c #454774",
"3. c #444975",
"4. c #434773",
"5. c #454A76",
"6. c #444773",
"7. c #424672",
"8. c #474C77",
"9. c #464976",
"0. c #424772",
"q. c #424872",
"w. c #444A72",
"e. c #444A75",
"r. c #424771",
"t. c #434974",
"y. c #434975",
"u. c #424873",
"i. c #454B76",
"p. c #414672",
"a. c #424874",
"s. c #434771",
"d. c #424773",
"f. c #434A73",
"g. c #434A75",
"h. c #444B74",
"j. c #444976",
"k. c #454977",
"l. c #434774",
"z. c #444876",
"x. c #424775",
"c. c #434871",
"v. c #414673",
"b. c #424671",
"n. c #434875",
"m. c #434972",
"M. c #414772",
"N. c #414671",
"B. c #444C75",
"V. c #424A74",
"C. c #414771",
"Z. c #444B75",
"A. c #414872",
"S. c #484A76",
"D. c #424973",
"F. c #424974",
"G. c #434A74",
"H. c #424972",
"J. c #424871",
"K. c #404872",
"L. c #414871",
"P. c #444672",
"I. c #424770",
"U. c #40466F",
"Y. c #404770",
"T. c #424A73",
"R. c #404771",
"E. c #484F6C",
"W. c #414870",
"Q. c #464C74",
"!. c #444B73",
"~. c #434A71",
"^. c #414A6E",
"/. c #464871",
"(. c #494F69",
"). c white",
/* pixels */
"  . X o o O o + @ @ @ # $ % & * # $ = $ - ; - : & - ; > & & & & > , - - - > & < > 1 2 3 4 5 6 7 8 5 7 9 0 7 q 9 4 w e q r t y u ",
"i p a O 1 6 7 s d a & ; & f a a * & , , , 7 : : + 1 3 , 1 2 : f 1 - 1 , 1 f f 1 , 2 t w t w 6 5 6 g 6 1 > w h 5 j k l q e 4 z x ",
"@ c v 2 O 1 O b n 1 , m O o o & & O O m 3 O , m , 2 2 3 1 3 2 , , , , O M O , 6 2 N N B r 2 7 - V - - 6 2 C 2 7 8 9 Z A S D r F ",
": z N 2 b 3 b b M 1 1 M , m G o o G O b M m 6 , H 3 2 2 2 , , 2 < 3 3 , 7 t , 2 B 2 2 2 B 2 A 7 1 t 2 2 B 2 2 6 7 7 A A r r J r ",
"8 t t 6 1 3 O 2 1 , , , n n , , , K , , , 1 1 7 6 m m 3 3 7 1 2 , , 3 , 7 2 1 7 , 7 A t 2 2 t 6 7 L 7 7 B 1 6 P 6 w A 7 < A t I ",
"U A 2 1 1 + f , f ; , 1 : 1 & 1 , ; ; m , f 1 , , m m 3 , O 1 1 , 1 , 1 1 1 t 2 3 m 3 2 t t t 1 7 7 w w Y 7 7 t T 5 6 w 3 , 1 R ",
"- 6 1 1 1 : 1 > , < m M N P 1 2 3 E o - , 1 1 2 O , m b 1 , 2 , m , , m 3 m m m 3 3 3 2 t 1 6 A 6 9 7 9 < , 2 7 2 A t t & m W B ",
"Q o = 1 t f 1 7 6 & m 3 C t 1 1 ! ~ N b & b 1 , , , 2 1 2 1 1 1 , 2 1 , 2 3 2 6 2 , 2 t 2 2 3 O , 2 h 6 2 6 2 w A q q 6 ^ ^ ^ 3 ",
"/ ( 1 1 O b O O f 1 , 3 3 G G & O M ) m ; , , f 2 O 2 , O 1 , , O , 2 m , 3 1 6 2 w _ 2 < _ O ! m , 2 1 t 1 O , 1 B 2 1 7 , 2 O ",
"o ` t 1 o O M O , G & , ' M ~ O & : 1 , , O 1 1 , , ] [ m , O M , 1 2 , 3 M 1 t 2 w B 2 3 O b O M , 7 9 A 3 7 t 7 2 3 t 3 ' _ 2 ",
"& o n 1 , m , O G & 1 & O O ~ M , O 1 3 , 1 , , 2 , 1 m m m 2 , 2 b 2 1 2 , 1 1 , 3 7 w 2 O 3 O , < , 6 2 3 < 7 A 6 2 2 2 2 O B ",
": s 1 1 b , O , 1 1 G 1 O M M M O ; 1 & m , , - M 1 1 , & , , m , 1 , , 1 , 2 O { , 2 1 1 , } ! G 1 1 O G O 2 , H < t t O b b | ",
"1 b O t O O O , f G o , O O G f f o f m > 1 m , f o O , , f 1 m 1 1 1 1 , , 1 1 o G 7 h 7 3 1 f b f 5 7 H 7 A A 7 Y s , O O o  .",
"O b 3 f 1 G , m o n O ] , G m o o : 1 > > , ..> 1 , , 1 & , , > & m m - , > - , ; < 7 7 7 X.> 7 6 7 9 9 L 9 7 7 3 m , o o o o.~ ",
"O O , O f & , , G n G o O K K ; m : 1 & 7 = = [ , f m , m m & ..& > = O.m < , +.@.6 7 = 6 < 7 7 < g 5 6 L 8 6 m 7 , 1 n o 1 ` #.",
"1 b 3 , O , 7 1 G & o m m { G o o & o / + - & , ; 1 & G 1 & 1 & , 1 & : : , ; 1 H 1 7 , , 1 m 7 7 7 < < 7 - 1 1 , 2 b 1 G G G ! ",
"6 b 1 1 n , , t + & & o G o o G o 1 & o.K L , 1 : , 1 , , d , 1 & & 1 1 1 , , , ; , , f , 1 > = 6 + 7 - < 6 1 f s , O n ` ` $.b ",
"6 1 2 f n M m o , G ; G , & & o : G G %.; L 8 > G m , , m , ; : - m ( O o o & K K ..1 1 > , 1 - 1 + + & , m E , f b o o o G $.&.",
"- b 1 n o ` , K & , & o f G & G & G o.$./ 0 8 , m m , : m m , : & & : 1 m o G , [ , 1 1 , , , - , f - , + 1 ; 1 f s & G o ` ` { ",
"8 b G o ` ` : , & , & o o & / o & o o.*.o.8 5 - & n , o , , , K K , o n G o , 1 o 1 1 1 1 G G : o & + 1 1 - & f n 1 O o / n ` =.",
"+ f O , , O m 1 & & , : G $.& n ..a -.;.` + L , o G o , K o s m o o & o o G , n , & n 1 K , : o & & d f m , O o G n { o ` o.` ! ",
"- b O G G o M & 1 : & o o G G & o $.-.:./ 8 - : 1 m G m o %.1 & G G & 1 b , O , o m n 1 o G O K , f >.f 1 , O o o , G G G $.` ` ",
"6 b O O 1 s O , n n n , o G G G o o o.,./ + + 1 G <.n G K G n G G o O & o n n o G m G G 1 s n ; G , o 1 1 & o o o G o o G o.` { ",
"1 1 b b b n , b b 1 1 f o G & G o : / / ; & , & : o o o 1 o n o G o n G G G o 1 o o G m o n f o , o , M : : o / G o { n o ! / ! ",
"L b O t o o b O 1 d n b o o G o n : & o ( & ; & o o n n M n d G o o o o , G G G o n 1 , O 1 f 1 & G n o o _ O n o.K n d ` o.o.=.",
"8 1 O n b G O M o o G G G o o G o G $.& & & K ; , : ; : o G ; o n G K G G %.G o , o 1 o m G & o o o , o : G O G G ` ! n $.` 1.2.",
"- 1 M b o m G O G G G G o o G G d : ; G %.; G & n / %.; K G G o o & o n %.o o n G G o n d G & o o n 1 G & a o n o n n G o./ ` =.",
", O , b o G O { O G o n o $.G G G a $.$.$.@ $.& ; ( $.$.o %.$., o G G o <.K n a & G G o G , o n m & ( ( n G n o n K ,.n o.o.3.o.",
", O n n n o { ! o o G o K o G $.$.4.o ; $.: %.$.o o o $.$.%.G G o o : o G G n n o K o n $., o ( & o d n o o G $.o.` o.o.o.o.1.*.",
"o { o n n o o O o n ! O o { o o G / / G o / / ; %./ : / $.o ,.G ` o : o $.: o o o o K n o $.G %.& n n & $.a / o.o.G 4.o.5.3.*.` ",
"o o o / $.n o K o n ` o ,.,.` / o.$./ n o / $.$.$.o $.$.$.G G o $.n G & o n : o G , o 1 o / n & & ( n : G a & / ` o.` ,.o.4.` O ",
"o ` o./ o / o G n 6.o n { ,.` 1.` G o./ $.& o o G G o %.G G ` o.G o ,.o n / K G K $.G ; G a a ; $.%.%.K & / $./ G o ` a ` ` 1.! ",
"o.;.o.o ! M } o o G G 6.n o.{ / ,.,.$./ G G o $.o 7./ ,./ o.` ` o.8.o $.$./ d o : G $.$.n a & : : / & o / n / n o $.7.` / 3.*.! ",
"9.=.! O o o M o o o o n ` ,.G ` / o %.$./ o / $.; $.%.G / n G / ,.G $.$.& n o o & d %.$.a n & & ; & / o o / G / a ` { o.` o.3.! ",
"1 { O O o & o G { n ` { o.` ` o.o.n / $.3./ $.o $.%.n / o 4.G ,.o o o $./ o / %.n $.: G n o a G %.0.: $.$.$.n $.o.a o.` $.$.1.=.",
"+ : , , , / n n o o.` ` o.,.o.o.o./ $.$.%.%./ a 0.$.$.%.G / G %.G / $.$./ o o o o.o o n G ` $./ K $.q.n & / / ` G o.o.5.$.$.1.{ ",
"w.( o f n o o / & G o o G K ,.n / ` n $.$.%.e.a / 8.%.$.a o $.o / / / $./ %.` / $.G o n n o G : ; $.a : o ; $./ a ` 1.$.o.o.*.=.",
"w.( b o n : 1 o o n o n o.,.,.$.n d a $.@ 0.; @ / $.$.%.$./ / $.$.$.$./ $.%.o / o o o G o.& a / @ a o * a / $./ / o./ 1.o.*.1.=.",
"w.1 m n n r.o G n o G ,./ ` / G / a $.@ / @ # $./ ( a / $.%.n / / / o 3.$./ / / n o G o / o o t.: : * & / a / n ` o.1.1.o.o.3.*.",
"+ a n , o n o G $.$.$.$.o.o.` ` / %.o o & @ $.# $./ a a $./ / o / / o.$.%.` 0.o./ / G / / / a : $./ ( : : / / n / ` / 1.1.` y.c ",
"* a n s o G o o o o : $.$.` $./ a o / / a & %.# @ $.e./ / %.$.$.` n / / $.t.a $.$.$./ $.$.n : ; : ( : & : / e./ a / 3.1.t.u.1.` ",
"^ $.G n & $.n G G a o / / o.$./ / $./ / / a / @ %.$.e.i.a $.%.` $./ / $./ q.$.$./ o / ` o $.a ( G ( r.$.$.: @ / / / ,.%.e.t.1.=.",
"$ ! n n o G o.d o / o / $./ / $.$.G $./ $.$.@ @ $.$./ t./ / $.o $./ / %./ $./ $.a / $.n / $./ o G & : $./ @ / : a p.1.$.3.a a.o.",
"G ! ] d o $./ / r./ o %.$./ $.$.,.$.$.$.$./ / / / / / %.%.$.%.$.$.1./ / $.@ $.& $.& $.o $.o G & G ( * : : & @ / / / $.a 3.t.1.=.",
"G b n G n / %.$.a / $./ $.o.$.a $.$.o./ o / ; $.a ( / %.e.# e.$./ / 3.$.$.# $.& / : o / o $.: ( n / d / ; : 1.1.1.%.3.3.a 3.1.c ",
"{ 7.6.o a 4.G / a @ ` / o./ ` o.o./ / G o $./ 4.$./ a * a / $./ ` o.` a / $.a $./ G / a o o o : ( ( d r.: : q.1.1.%./ 1.3.3.y.` ",
"s.d ` & / $.G n a / a a 4.$.o./ a 4.$.; & o.a d a o.$./ / $.4.o./ n 0.d $./ a n : / : & G n & : o d r.d : * a / %.$.d.1.1.` t.{ ",
"q.( ` n o G G o $.%.G o.4.4./ / / / ` ` : G G / ` ` / o.G { s ! o a ` o G / o d n n n / / ( & n : ; / G : : ( : $./ 4.1.` 3.1.2.",
"f.a G n & n o $./ / $.o.` o.` / / ` *.;.( - / ` ` o a n : o O K f : & & / / n 0.: o / : n : n : : o 1 : : & ( * / 4.1.` 3.3.3.{ ",
"^ / & o n a : : & / / / n / n a / / d.*./ - ; G $.$.$./ $.& o $.o $.$./ : ; / : G : n ^ $ : : ( - ; : : & : n * / / a a t.e.g.=.",
"h.& G : / n / G n / / a o o a / @ 1.j.k.5.w., / o & / ( / ` / o.$.a ` 3.o.& * ( / : n ( : & / : : : f / & o n d / / ` a / t.d.l.",
"& 1 o o & o $.$.o n a $.$.,.$./ z.x.j.j.3.w.c./ & G n / o n o.o : : / : o : : / * o / / : ( a / + : r.a 1 o : a / ` ` / $.a.p.c ",
"@ n s d n a o : o 4./ n / 3./ a l.l.3.v.@ ^ c.* / $.d / : n a n , & n 0.( ( a / $.: ( ` / : : ( : d b.n : : n n 4.n o.u.` o.{ 2 ",
"n ` n o : o o / / / G / :.$./ / / l.n.n.^ ( @ $.$.o / ` n $.n : & n : & / a / / & & : ` : m.( ( ( ( : o o n / / 4./ a ` ` o &.o ",
"n G / a n n n a n / / / # / n & & / n.j.( ( 0./ %.o / %.G G ` / 0.n a & $./ %.@ # & a / a & @ @ a ( o ( G : o a a / $.3.4.` ` n ",
"& ` / a o o.o o.` n a / G ; a / / e.%.& & : a / $.; 1.@ %.a / ` $.& / n / $.a / %./ M.( @ @ : # / : : ( & $.n d 4.o / ` a ! 3.! ",
"/ 1.$./ o.%.o o./ n / : / $.a * e.& ( a / $./ / / $./ a G / / $.$.& / a a a / a o t.a s h.h.@ N.a / : o n & n d $.` ` 0.4.4.` { ",
"u.d.3.$.$./ a $.& / a @ a a a * @ @ u.* $.e.@ / a 0.* * a / a @ $.t.* / / N.$.* / a / z v B.V.C.* ( a @ @ 0.4.a ` %.o.d.` 4.0.4.",
"M.1.o./ o./ / $.; / / 0.t.t.* @ Z.t./ 5.%.u.a u.$./ u.$.e.t./ $.e.u.a e./ 5.* / a A.* ! S.D.D.@ $.@ 0.t./ / / 4.4.o.o.4./ 1.1.` ",
"F./ / o / / / a / $.( q.@ / $.t.# @ / @ e.e.* a t.$./ i.@ t.a t.$.t.t.a 1./ t.a a * t.d G g.* * / @ A.* / / o.1.a o.4./ / n / f ",
"g.` / @ / : : / & a & : : : ^ * G.t.* u.e.D.t./ / ( @ G.a a $.* G.@ 1.t./ a / / ( u.t.H.q.@ a * @ * q.t.0.a 1.o.o.o 4.o./ n n a ",
"/ n * f.m.q.: & & : + : # : J.f.H.q.t.# @ D.H.@ e.@ * D.M.C.@ G.K.u.a / $.* : : a u.H.f.L.D.u.e.e.f.m.q.q.d a 0./ a n 1 1 ( a P.",
"r.;.* * m.( ( @ @ + I.U.^ w.m.m.Y.L.D.f.T.^ J.C.( L.f.G.C.u.M.q.D.D.C.* @ * C.I.( q.A.H.R.G.q.D.H.H.J.r.0.d.a p./ ( : : ^ m.% g ",
"E.W.n : - Q 0 Q Q.- + - L Q + + m.m.Q h.!.$ $ ^ $ @ ^ m.H.: @ ^ * G.f.f.$ ^ w.8 + + m.D.D.f.f.f.Q $ > : 1 d q.0.{ 7 f c.~.^./.(."
};
