/* XPM */
static char *_060619f83fe4359a09ae8b434398856[] = {
/* columns rows colors chars-per-pixel */
"64 64 250 2 ",
"   c #070206",
".  c #120202",
"X  c #18070B",
"o  c #0B051A",
"O  c #130613",
"+  c #1B0314",
"@  c #1B0D13",
"#  c #13041B",
"$  c #130C1C",
"%  c #1B0C1B",
"&  c #160915",
"*  c #1C1215",
"=  c #1C131C",
"-  c #17141A",
";  c #21040C",
":  c #25130D",
">  c #240D13",
",  c #230C1A",
"<  c #280918",
"1  c #231314",
"2  c #2C1215",
"3  c #23131C",
"4  c #2A141B",
"5  c #271A19",
"6  c #35151A",
"7  c #330D12",
"8  c #30211C",
"9  c #0B0723",
"0  c #160C23",
"q  c #1C0C23",
"w  c #180927",
"e  c #151124",
"r  c #1C1423",
"t  c #1C142B",
"y  c #1D1A2A",
"u  c #181A25",
"i  c #1A1A35",
"p  c #130B31",
"a  c #240E26",
"s  c #231323",
"d  c #2A1423",
"f  c #231B23",
"g  c #2B1922",
"h  c #24132A",
"j  c #231B2D",
"k  c #2C1C2B",
"l  c #321B29",
"z  c #251B32",
"x  c #231D3D",
"c  c #2C1C38",
"v  c #331C37",
"b  c #270E36",
"n  c #1B213A",
"m  c #29232B",
"M  c #322129",
"N  c #2D2434",
"B  c #2C233D",
"V  c #262638",
"C  c #332433",
"Z  c #332A34",
"A  c #34253C",
"S  c #38283B",
"D  c #37343B",
"F  c #2D3131",
"G  c #41313D",
"H  c #3D413F",
"J  c #1A1842",
"K  c #231D44",
"L  c #271943",
"P  c #1D2B4E",
"I  c #2C2343",
"U  c #2C2B43",
"Y  c #2C2C4C",
"T  c #262548",
"R  c #342444",
"E  c #332C44",
"W  c #392C43",
"Q  c #332C4B",
"!  c #3A2C4A",
"~  c #352748",
"^  c #2C334B",
"/  c #3B3344",
"(  c #34324C",
")  c #3B354C",
"_  c #373747",
"`  c #2C2C54",
"'  c #292B59",
"]  c #312C53",
"[  c #3A2D53",
"{  c #2B3354",
"}  c #2C325B",
"|  c #28385B",
" . c #333254",
".. c #3A3454",
"X. c #33345B",
"o. c #3B345A",
"O. c #333B5C",
"+. c #3B3A5C",
"@. c #393A55",
"#. c #2C3C65",
"$. c #2C3A68",
"%. c #353661",
"&. c #343C64",
"*. c #3B3C64",
"=. c #3B3C6B",
"-. c #373968",
";. c #30366B",
":. c #443949",
">. c #433954",
",. c #423C5B",
"<. c #423656",
"1. c #423E63",
"2. c #39425D",
"3. c #39404C",
"4. c #2C4569",
"5. c #344264",
"6. c #3C4263",
"7. c #34446B",
"8. c #3D446B",
"9. c #3C4B6D",
"0. c #354B6B",
"q. c #2D4572",
"w. c #344B73",
"e. c #3B4D74",
"r. c #354C7A",
"t. c #3B4E7A",
"y. c #364373",
"u. c #3C537A",
"i. c #395376",
"p. c #3E536C",
"a. c #474259",
"s. c #434249",
"d. c #424464",
"f. c #42446A",
"g. c #424B6D",
"h. c #484869",
"j. c #444C74",
"k. c #464A76",
"l. c #435375",
"z. c #43547C",
"x. c #4B547B",
"c. c #485377",
"v. c #4E5470",
"b. c #3A4D86",
"n. c #395489",
"m. c #3C4F9C",
"M. c #3B549C",
"N. c #3C5B9C",
"B. c #385696",
"V. c #2E4C8F",
"C. c #3A6393",
"Z. c #3C4FA4",
"A. c #3B56A2",
"S. c #365CA4",
"D. c #3D5CA4",
"F. c #3C5DAB",
"G. c #3954A9",
"H. c #395AB2",
"J. c #3E61A5",
"K. c #3D62AC",
"L. c #3F69AE",
"P. c #3564AC",
"I. c #3C63B2",
"U. c #3E6BB4",
"Y. c #3B6CBA",
"T. c #3766B6",
"R. c #3D73BC",
"E. c #2F64AA",
"W. c #464E88",
"Q. c #425483",
"!. c #4B5382",
"~. c #455A83",
"^. c #4A5B8C",
"/. c #47568A",
"(. c #525987",
"). c #445594",
"_. c #4A5493",
"`. c #445B94",
"'. c #4B5B93",
"]. c #44569B",
"[. c #49559C",
"{. c #445B9D",
"}. c #4B5B9C",
"|. c #525B9C",
" X c #525A97",
".X c #414E9D",
"XX c #45639D",
"oX c #4B639C",
"OX c #4A6598",
"+X c #52659C",
"@X c #57699A",
"#X c #546692",
"$X c #62689A",
"%X c #4356A3",
"&X c #435DA4",
"*X c #4A5DA3",
"=X c #435DAB",
"-X c #4A5DAB",
";X c #4756A6",
":X c #535CA2",
">X c #465BB1",
",X c #4463A4",
"<X c #4A64A4",
"1X c #4569A6",
"2X c #4C6AA4",
"3X c #4464AC",
"4X c #4965AE",
"5X c #4964AB",
"6X c #4569AC",
"7X c #4B6BAC",
"8X c #526CA6",
"9X c #516DAB",
"0X c #5667A5",
"qX c #4B72AC",
"wX c #5372AD",
"eX c #5974AA",
"rX c #4365B2",
"tX c #4A64B1",
"yX c #446BB3",
"uX c #4B6CB2",
"iX c #436CB9",
"pX c #4A6AB9",
"aX c #516EB4",
"sX c #5866B4",
"dX c #4571B4",
"fX c #4D72B3",
"gX c #4572BB",
"hX c #4D74BB",
"jX c #4D79B9",
"kX c #5373B3",
"lX c #5B75B4",
"zX c #5A7AB4",
"xX c #5375BA",
"cX c #537BBC",
"vX c #5A7CBA",
"bX c #5678B6",
"nX c #6371A9",
"mX c #637EB5",
"MX c #6564A6",
"NX c #3D73C3",
"BX c #4977C6",
"VX c #5276C1",
"CX c #567CC5",
"ZX c #4C70C9",
"AX c #5B83BD",
"SX c #6384B9",
"DX c #748FBA",
"FX c #5983C8",
"GX c #6888C6",
"HX c #6E8CCC",
/* pixels */
"8X,XrXrX3X3X3X&X{.{.*X}.&X3X=XD.0X(.K x W.9X&X&XrXrXtXtX4X5X5X3XtX5X=X=X=X3X=X3X&X&X,X#XK J @X2X&X,X,X3X,X,X<X5X5X<X&X=X3X3X5X2X",
"C.S.rXrX3X3X5X5X5X<X*X{.,X3X3X4X2Xb.I ) oXyX=X3X=X=X=X5X5X5X5X5X5X5X=X=X=X=X3X3X4X4X5X0XT T nX<X5X3X3X3X3X,X<X<X<X<X<X5X4XtXtX5X",
"6XrXrXrXrX3X3X5X&X&X&XD.=X3X3X3X5X`.B A <XiXrXrXrX3X3X5X3X3X=X=X=X3X3X3X3X3X=XrX3X3X4X0XK K eX,X3X3X3X3X3X5X3X3X,X,X3X4X4XrXrX4X",
"6XrXU.U.rX3X3X=X&X3X3XF.F.K.K.3X3X}.x C 1XY.I.rXrXrX3X=X3X3X3X3X3X3X3XrX3XK.K.I.rXK.4X|.K J 8X3XK.3XrX3X3X3X3X1X1X1X3XrXrXrXrX3X",
"uXU.yXU.I.rX3X,X3X3X3XK.K.K.K.3X4X`.z W 6XY.I.rXrX3X3X3X3X3X3X3X3X3X3X3X3XK.K.I.I.3XtX}.x J wX6X1X1X3X3X3X3X3X1X3X1X3XrX3XrX3X7X",
"xXyXyXyXrXrX3X3X3XyX3XI.I.K.yXyXuX^.j ) 7XyXuXyXyXyX3X3X3XrXrXrXrXrXrXyXyXyXyXiXyXpXxX<Xz x zX7XyX3X3X3X3X3X3X6X6X1X3XrXrXyXfXlX",
"GXvXlXvXxXkXkXaX7XfXhXhXgXgXdXfXcX'.m 3.eXCXCXVXjXhXhXVXCXcXcXVXVXVXVXVXhXhXhXhXBXCXCX7Xi m mXCXCXcXjXhXhXVXhXCXFXcXxXxXxXxXbXSX",
"1.h.h.j.8.8.8.2.@.@.6.8.7.&.| O.O.( N m @.| #.7.7.4.7.7.7.7.8.&.&.&.O.X.O.X.Y Y ^ | q.r.i - l.n.b.r.r.u.r.y.q.q.w.q.7.7.#.| } 5.",
"O u y y j r 3 4 2 2 6 6 l 3 , 3 4 4 f = f = = = r s s d 4 4 4 , 3 3 3 3 s s 3 3 3 5 5 3 - @ * $ $ 0 0 q q a a + + + & $ e 0 # 9 ",
"Y  .o. .( ( ..Q ( U M l ~ ,.,.1.f.*.d.*.*.=.,.a.,.+.*.o.<.<.o...o.o.o.=.=.-.=.+.O.@.) ( ] X./ / ..X.} } x c R R S A B K T K x L ",
"eX<X<X|.,XtXpXrXtX-X} ' ;XpXF.=X%X*X*X[.;X;X[.*X-X%X>Xm..X>X>X-X*X}.[.*X-X).[.m.m.;X%X).[..XW._.[.`.`.`.T ] sXZXtX*X*X}.}.}.0X0X",
"qXyXyXyXiXiXyXyX3XkXP ' 6XiXrXyXrX3X=X>X>X%X{.&X4XuX5XM.%XtXpXuX5X,X<X,XuX{.,XD.N.rX3X,X&X&XD.3X6X,X<XOXT ..nXfXhXaXaXaXkX9X9X8X",
"jXgXyXU.U.U.U.yXuX9XK +.fXdXuX7X6X3X3XrX4X3XXX2X7XuX3X,X5XfX7X7X2X7X7X2X7X<X2X,X,X6X6X2X2X}.,X1X1X2X9XoXT @.SXfXhXhXhXfXkXwXwXeX",
"CXiXdXiXiXiXyXuXfX8XL &.cXqXfXuXuXuXuX7X7X7X2X2X2X7XuXaXkXkX9XwXkXkX7X7XwX2X7X1X7X7X4X<X<X2X2X7XfXuXkX+XI U SXbXCXcXjXbXkXwXkXSX",
"FXFXBXBXBXgXgXhXCXeXx O.AXbXbXfX7XuXuXaXkXxXwXwXfXbXcXvXvXvXzXzXzXbXkXkXbXxXxXbXbXvXkX7XkXkXkXxXcXcXvX+XV f DXGXFXCXcXfXxXcXAXSX",
"$.r.w.q.q.q.q.t.~.f.x n w.n.u.w.i.u.t.Q.l.e.7.5.7.5.7.e.5.5.5.O.O.O.O.X.O.6.5.9.5.7.e.9.g.g.+. .&.4.b.#.t & ( $.} { { { { | | | ",
"q , , - = 3 3 4 5 2 5 * - $ - $ e j 3 s s 3 % % u u r s 3 = @ = - e t = = = e e e 9 9 o O @ - o # # % % e r f = 5 1 = t y 0 # 9 ",
",.d.,.+.>.) _ / :.:.:.s._ _ _ ( Y V 3 N @.+.2.6.2.6.+.*.*.6.6.6.6.8.8.8.d.d.d.*.*.-.#.| j j ( ) ....+.8.8.j.d.a.a.a.+.*.*.X.! R ",
"#X}.<X*X*X*X%X*X[.*X}.}.oXoX{.`.{. Xz k.0X-X%X*X{.).).{.%X%X%X%X%X{.{.].].].`.OX<XXX<XoXz U +X+X].{.{.{.[.[.`.`.&X&X*X-X*X}.|.$X",
"OX6XU.K.L.3XK.3X=X=X=X%X=X=X,X,X5X<Xi k.&X,X3X3X&X&X&X&XD.D.&X&X&X&XD.&XD.D.J.K.3X3X6XXXN / 8X5X3XK.A.N.{.{.{.&XrX3X1X1X3X<X<X9X",
"XXfXyXK.3XK.1X3X&X*X<X&XD.,X,X,X<X).I g.<X,X5X3X3X3X3X3X3X,X,X,X,X,X3X3X,X,X1X3XrXI.3XN.! a.+X<X,X,XJ.&X,X&X&X,X,X,X,X,X<X<X<X<X",
"N.dXyXK.K.K.1X,X,X<X,X,X,X,X,X,X5X].R f.yX1X4X4X4X3X3X3X3X3X,X3X3X3X3X4X5X3X3XrXrXI.rXD.) :.OX,X,X,X,X&X<X<X{.,X<X,X<X,X,X5X5X<X",
"D.jX6X6XyX6X1X2X<X,X,X,X3X,X3X3X9X).~ f.yX6X7X7X7X7X7X3X3X3X,X2X6X6X5X7X<X3X3XrXK.K.rX{.:.:.XXJ.,X,X,X<XoX<X<X<X<X<X,X,X,X,X7X9X",
",XfX7X7X7X7X2X7X<X,X5X5X3X5X2X7X9X^.U 7.yXuXuXuX7X7X7X7X7X2X2X2X2X2X7X7X7X5X7XuX7X6X3X{.G s.XX2X,X,X,X2X<X2X<X<X2X<X<X<X,X3X7XkX",
"mXvXwX8XwXwX8X8X2X2X7XuXqX7X7XwXeX^.i 2.kXVXfXuX7X2X7X7X7X2X2X2X2X7X7X8X2X2X2X9X9X2X2X`.Z D {.5X7X1X1X2X2X+X+X2X2X2X<X,X,X2XjXAX",
"x.(.l.l.l.l.c.c.x.c.l.z.u.i.0.4.0.{ V F 2.7.7.5.7.7.9.e.9.p.9.9.9.9.8.g.j.h.2.6.9.w.w.7.m M 6.Q.z.w.i.u./.^./.~.Q.z.z.~.z.u.e.| ",
"% % 3 = = = = f j k l 4 , % # # t h j f 5 = , + , s s h a s s a h h a t t p w q s s h h h s 3 = = % , , , j j s 4 < d h z z q o ",
"K Y ] ` Q E U { %.+.k s z B T ` ` ` Y Y  .{  .o.+. . .%.X.%.%.%.%.-.=.y.=.-.%. . .o.Q @.=.-.X.%.&.} ` i s j B E U B B I x K z p ",
"OXB.N.D.D.J.K.6X1Xb.A %.B.N.N.N.N.N.B.).{.A.N.{.D.A.A.A.B.N.{.{.N.B.N.N.N.B.B.V.V.B.N.B.B.n.B.M.S.S.&Xn.K T *XpX3XJ.D.N.N.n.b.!.",
"6XP.T.T.T.Y.Y.U.yXb.v 8.E.E.F.K.K.,XJ.,X{.D.,X,X,XF.3XD.%X&X,XJ.D.D.D.D.D.D.S.S.A.D.J.&X{.N.N.K.K.K.3XN.] @.9XgXgXuXuXyX6XuXlX9X",
"gXY.Y.Y.Y.Y.NXY.iXb.v e.E.P.L.L.L.K.,X1X,X,X,X,X1XK.I.3X3X3X3XK.K.K.K.K.K.P.K.K.K.K.1X,X<X,XK.K.K.L.yX{. .,.wXR.R.dXyX6X7XfXkXeX",
"BXNXBXBXNXNXNXNXhXn.M Q.U.iXyXyXyX6X3X3X3X3X3X3XyXyXrXrX3X3X3X3XyXK.I.yXK.P.U.rXyXyXuX2X2X7XyXyXyXyXyX2X( @.fXBXgXgXyXuX7XwX9XmX",
"FXBXBXBXBXBXCXFXCXb.m g.iXVXgXdXdXyXdXdXyXfX7X7X1X1XrXrX3X3X1X1X6XK.,XJ.K.K.yXyXyXyX6X7X9XkXxXxXfXfXkXoXU _ 7XZXZXgXdX7XwXeXmXSX",
"j.f.6.2.O.2.5.0.9.Y 3 m { ;.y.w.w.e.e.u.~.n.0.9.g.g.9.9.l.e.e.u.u.l.l.j.j.t.n.n.b.r.t.9.f.g.j.e.u.u.t.{ h M D X.$.$.4.#.#.7.4.4.",
"O > > < < < 4 4 4 3 g 4 : : 3 , d l l g d < + % % s 3 3 3 = r r = s d d g g 4 3 3 3 s , , 3 f % q a w w q r = * * 3 s t z h q 9 ",
"U _ ..~ S S C C k C M l C Z A E A c 6 M A v c I I I R R R R I c c c c C A A A A R I x t 3 j B ! ! ] ] ` ` `  .( ) ....o.o.~ L L ",
"@XOX}.'.^./.!.!.x./.!.x.!.^.^.`.`.d.4 <.[.[.].}.}.].].)._._._._._._.W.W.W.W.W._.).{.`.Q.x T W.{.M.N.B.B.B.].{.].*X[.'.[.`.).].MX",
"qXL.I.3X6X3XK.K.F.F.K.K.K.K.S.J.,Xb.c 1.&XK.rXK.K.F.F.D.D.D.&X&XD.D.D.F.D.A.F.F.F.K.K.{.} ` {.1XK.K.F.D.D.J.D.F.F.D.,X=X3X3X3XaX",
"U.R.Y.T.I.I.I.H.F.K.K.K.I.K.K.K.,Xn.R >.F.K.yXrXI.K.F.K.F.3X3XF.K.K.F.F.K.I.F.K.K.K.K.&XX.{ XXL.I.I.K.K.J.J.F.K.K.1X3X3X3XrX3XF.",
"E.Y.T.T.T.T.I.I.H.I.I.I.T.I.P.K.3X{.A <.U.P.I.T.I.I.F.I.F.F.K.F.K.I.I.H.I.H.I.I.I.I.I.=X} { <XU.I.I.I.F.F.D.F.K.K.1XK.3X3XrXrXK.",
"gXR.Y.Y.Y.T.I.U.I.H.I.I.H.I.S.K.3X`.N o.yXU.I.I.I.I.K.rX3XrX3XK.I.I.I.I.I.I.I.U.I.I.I.%X[ T 7XdXK.K.K.J.3XK.3XK.K.,X3X3X3XrX3X7X",
"VXiXiXU.U.iXyXrXI.I.rXyXI.K.6X7XkX^.s O.7X7XuXyX6X3XyX6X7XyXyXyXyXyXyXpXpXyXyXiXyXuXuX].A B wXbXdXyX6X3X3X3X1X3X3X3X3X3XyX6X7XwX",
"FXcXfXfXfXfXuXyX3X3XyXpXuXuXqX8XeX9.r _ @XlXbXkXqX7X7XuXfXfXuXuXuX7X7XuXuXuX7XuXxXxXvXn.s m eXGXmXzXbXkXfXuXyXuXfXfXkXaXuXxXcXzX",
"-.j.d.6.O.5.O.+.,.,.*.%.&.O.^ ^ E Z M 5 C Z W / E ( E Q ~ R W W W W W W W ! A B A E Q Q h > Z Q ..>.,.,.@.o.o.+.&.#.} ] ` Y ]  .",
"# r s t h 3 1 2 > > 1 4 g , , , 3 5 5 5 8 1 5 4 g g l 6 6 7 7 2 4 d 4 4 4 , > > 4 5 5 g y f 5 - - & + < < < < < ; ; + % r % + # ",
"+.6.*.+. .( ( U U V f g B @.6.&.7.#.y.7.*.*.8.6.6.7.=.*.@.@.+.*.*.=.y.y.y.=.-.%.&.&.O.O.=.y.6.2.5.5.#.{ j j I Q Q E U T T T I L ",
"@X2X<X<X&X=X>X<X<Xb.V ' G.ZXI.K.F.A.A.m.Z.G.G.M.A.H.H.m.A.H.H.F.A.M.M.M.M.m.M.A.Z.G.A.M.%XA.Z.%X&XN.XX`.n ' pXZXiX3X&X%X&X{.oX0X",
"OX7X6X3XyX7X7X2X9X^.i =.U.iXrXrXrXI.F.H.>XF.D.N.J.F.I.M.A.3XK.F.D.D.D.J.J.B.,XJ.D.K.J.D.=X%XF.rX3X,X<X'.T o.lXhXyXpXyX7X7X7X8X2X",
"fXdX6X6X6X6X6X2XwX^.h 6.dX6XyX6X3XrXrX3XrXJ.N.XX6XK.I.S.J.6X6X1X1X3XJ.1X6XN.,X,XJ.1X3X3X,X&X3X6X1X1X7X`.U ) zXjXbXfXfXfXwXwX9XwX",
"hXuX7X7XyXuX7X7XkX#Xg 8.jX7XuXuXyX7XuX5XyX6X<X2X6XyXyXrXyXuX6XyXyXyXyXyXyX,X3X6X6XuXyX7X2X<X2XuX7X7X7X'.U B AXvXFXcXhXbXkXwXwXmX",
"cXCXuXuXyXuXuXuXbX@Xs O.vXlXwX9X5X7XtX4XuXaX9X7X7XuXVXhXhXbXuXfXfXfXhXfXfX7X7X7XuXxX7X7X9XkXkXvXlXzXlXOXN s HXHXHXFXCXxXbXvXSXGX",
"~.C.B.N.B.n.n.N.OXf.k y 9././.Q.~.~./.'.^./.x.l.l.l.x.!.x.!.x.l.k.k.j.j.l.x.!./.z.u.~.#X^.!.j.g.j.r.b.w.i X @.b.y.0.w.w.w.i.i.u.",
"h % @ - r s 3 1 4 1 3 * & & - e y j g d 4 > > > f f 3 3 > 3 % % $ $ $ - - - $ e 0 # o 0 = % % o o 9 9 0 e r = u * O $ 0 e 0 # o ",
"L v L B B Z D D Z / ) ) _ D B I z = 1 g m N F U E E E W W E E U ^ ^ ( ( ( ( E (  .Y T i = @ y m T Y  . .-.6.@.@./ / E ~ Y I v b ",
"$X0XsX:X|.:X|. X|.|.:X|.'.}.}.`.].f.s 1.|.5X;X%X}._._.[.[.[.}.*X*X*X%X*X*X}.}.<X<X<X0X^.t N !.+X[.[.}.[._. X'._.[.}.}.:X}.).|.MX",
"@XaXuX5X5X5X5X<X5X-X-X=X&X3X5X5X9X'.w (.tXrX3XF.=X=X=X3X=X=X&X3X=X3X3X=X>X=XtX4X3XrXuX+Xi ! nX5X=X3X&X*X{.*X%X=X>XrX3X3XrX3X3XaX",
"oXaXuX3X4X5X3X5X&X-X=X&X=X3X3X<X2XW.c x.3X,X3X3X3X3X=X3X3X=X=X&X3X&X3X3X=X3X3X5XrX3X3X).I <.0X3X3X3X=X%X-X-X=X3X3XK.K.K.F.3X3X=X",
"N.uXuX3X3X3X3X4X&X<X5X3X3X3X3X,X5XW.A k.K.J.3X3X3X=X3XF.rX3X5X,X5X&X3X4X3X4X3X3X3X3XtX].Q ! <X1X3X3XrX3X-X*X*X,X,X,X,XD.&X3X3XF.",
"D.uXrX3X3X1X3X3X,X&X5X3X3X3X3X,X<X_.~ k.K.K.3X3XrX=XrX3X3X3X&X&X4X3X3X5X5X4X3XrX3X3XtX}.~ [ 2XL.K.I.3X5X5X<X*X,X,X,X,X,X,X3X3X=X",
"3XyX6X3X3X1X,X3X<X&X,X3X3X3X,X,X<X_.Q t.J.J.3X=X=X%X=X=X3X3X&X&X<X5X&X5X<X5X3X3X3X3X5X_.~ [ ,X1X3X1XK.5X*X*X*X&X,X,X,X&X,X5X,X,X",
"0X5X4X3X3X3X,X<X{.XX{.&X,X3X,XXX}.W.U w.&X{.&X&X%X&X&X&X&X<X&X&X&X*X&X<X*X*X<X,X,X,X<X'.U ) ,X3X3X1X,X&X}.*X}.<X{.{.,X,X<X<X,X<X",
"$XeX7X7X7X3X1X6X<XXX<X<X,XJ.,XoX+Xz.V p.%X{.,X,X,X5X,X3X,X3X3X3X5X3X,X<X<X<X<XXXXXXXOXOX_ H XXrX6XJ.J.<X<X8X8X2XoXOXXXXX<X7XbX+X",
"S _ V m m Z C C U E E E S S W (  .E M Z o.*.o...@.@.o.) ..@.+.%.X.X. . .(  .( ) ) Q `  .k M Z ` } `  .,.,.>.:.:.>.<.,.d.a.a.-.v.",
"3       . . . . X * 1 ; . . . 1 4 4 X .     O X X X X X . X X O O O O O O & @ @ X 5 r % O . : 4 s % & & + @ X @ * - - @ X . . :."
};
