/* XPM */
static char *c292947458794b5f87e6e024202835b4[] = {
/* columns rows colors chars-per-pixel */
"64 64 226 2 ",
"   c #181317",
".  c #17141B",
"X  c #1B151D",
"o  c #1D1A1F",
"O  c #201B1F",
"+  c #190E20",
"@  c #1D1721",
"#  c #1E1B23",
"$  c #1E1D2A",
"%  c #211D25",
"&  c #211E2B",
"*  c #211F31",
"=  c #211F3D",
"-  c #1E222C",
";  c #252027",
":  c #2C2625",
">  c #24222B",
",  c #2B262B",
"<  c #2D292D",
"1  c #2D2927",
"2  c #312B2E",
"3  c #252233",
"4  c #2B2633",
"5  c #2D2A32",
"6  c #2E2B3B",
"7  c #20243B",
"8  c #312D34",
"9  c #322F39",
"0  c #36263D",
"q  c #333136",
"w  c #32313A",
"e  c #221E41",
"r  c #1D225E",
"t  c #2A2846",
"y  c #312F42",
"u  c #3C2A46",
"i  c #37294B",
"p  c #3A2A4A",
"a  c #332642",
"s  c #333343",
"d  c #34354C",
"f  c #39364C",
"g  c #37384D",
"h  c #3A3C4D",
"j  c #3C3643",
"k  c #2C2556",
"l  c #2A2559",
"z  c #2E2D5C",
"x  c #252758",
"c  c #342A55",
"v  c #352D5A",
"b  c #392E5A",
"n  c #332354",
"m  c #343652",
"M  c #363854",
"N  c #3C3C53",
"B  c #333659",
"V  c #3B305E",
"C  c #353A5C",
"Z  c #3A3C5D",
"A  c #2D344C",
"S  c #252B65",
"D  c #272E69",
"F  c #292F6D",
"G  c #2A2B62",
"H  c #312F65",
"J  c #2A326D",
"K  c #25366B",
"L  c #303166",
"P  c #3B3264",
"I  c #363C62",
"U  c #393E64",
"Y  c #313469",
"T  c #353A69",
"R  c #393E6A",
"E  c #3A356B",
"W  c #263574",
"Q  c #2B3574",
"!  c #2B3875",
"~  c #243579",
"^  c #2B3679",
"/  c #26397A",
"(  c #2E3B7A",
")  c #243876",
"_  c #333974",
"`  c #323B7A",
"'  c #373A75",
"]  c #412F4E",
"[  c #423153",
"{  c #423E51",
"}  c #423C5B",
"|  c #423558",
" . c #42374B",
".. c #433F66",
"X. c #3B404E",
"o. c #3D4152",
"O. c #3C405C",
"+. c #3F4856",
"@. c #3B4165",
"#. c #3C426C",
"$. c #364163",
"%. c #2E427F",
"&. c #3E4571",
"*. c #38457A",
"=. c #464356",
"-. c #42435B",
";. c #4C495B",
":. c #484657",
">. c #514A5C",
",. c #464464",
"<. c #4B4C61",
"1. c #40446C",
"2. c #4B4B6C",
"3. c #484669",
"4. c #534E62",
"5. c #564F6A",
"6. c #4B5362",
"7. c #535064",
"8. c #58546F",
"9. c #414672",
"0. c #414873",
"q. c #494C7C",
"w. c #524E74",
"e. c #534F78",
"r. c #4C567E",
"t. c #545076",
"y. c #5B5B76",
"u. c #55517B",
"i. c #5A557C",
"p. c #5D5C7C",
"a. c #5B5575",
"s. c #605A69",
"d. c #5E627F",
"f. c #65677D",
"g. c #2A3D82",
"h. c #2D4184",
"j. c #2D438B",
"k. c #33498D",
"l. c #374788",
"z. c #394D94",
"x. c #364E9D",
"c. c #394F9C",
"v. c #374891",
"b. c #3D5297",
"n. c #36529D",
"m. c #3B529D",
"M. c #3C54A1",
"N. c #3B55A7",
"B. c #464F88",
"V. c #49568D",
"C. c #5D5C83",
"Z. c #575C89",
"A. c #424E9A",
"S. c #4B5C9D",
"D. c #465699",
"F. c #525D93",
"G. c #615E84",
"H. c #5D6283",
"J. c #5F6B86",
"K. c #5F748D",
"L. c #4B639B",
"P. c #55659E",
"I. c #58679F",
"U. c #5E7390",
"Y. c #626285",
"T. c #696785",
"R. c #666985",
"E. c #6A6A85",
"W. c #6D6C8B",
"Q. c #726C87",
"!. c #746D89",
"~. c #667485",
"^. c #65758D",
"/. c #6B758B",
"(. c #64788D",
"). c #717186",
"_. c #71738B",
"`. c #636C93",
"'. c #637690",
"]. c #68799C",
"[. c #4354A3",
"{. c #455BA5",
"}. c #4B5DA5",
"|. c #4256AA",
" X c #445BAB",
".X c #4A5FAA",
"XX c #4856A0",
"oX c #4C61A5",
"OX c #4C62AB",
"+X c #4D62A9",
"@X c #4E64AA",
"#X c #4B60AD",
"$X c #4A61AF",
"%X c #4A61AD",
"&X c #4C61AD",
"*X c #4C62AD",
"=X c #4C61AE",
"-X c #4D62AF",
";X c #4E62AE",
":X c #4E64AE",
">X c #4B61AA",
",X c #4663A8",
"<X c #5666A1",
"1X c #5264A5",
"2X c #5966A4",
"3X c #5969A5",
"4X c #5164AB",
"5X c #5468AD",
"6X c #5C6BAB",
"7X c #4B61B0",
"8X c #4C61B0",
"9X c #4E62B1",
"0X c #4D62B1",
"qX c #4C64B3",
"wX c #4B69B7",
"eX c #4D67B9",
"rX c #4C6ABA",
"tX c #4664B3",
"yX c #5065B0",
"uX c #546BB4",
"iX c #536BBA",
"pX c #5C6EB0",
"aX c #5A73BD",
"sX c #646BA4",
"dX c #7078A7",
"fX c #5A74C2",
/* pixels */
"S.oX,X{.,X%X>X>X%X%X>X%X*X%X*X*X*X*X%X*X0X0X0X0X0X*X*X*X*X*X*X0X0X*X*X*X*X0X0X*X.X*X*X*X*X%X*X*X*X>X>X>X>X>XoXoXoXoXoXoX}.}.oXL.",
"L.oXoX>X,X.X.X.X.X>X.X>X.X>X>X>X*X*X*X>X.X%X*X*X*X%X.X.X*X*X*X*X%X*X*X.X.X*X.X.X%X*X0X%X.X*X%X>X>X>X>X>X>X>XoXoX}.}.S.}.}.oXoXoX",
",X.X}.>X>X.X.X.X.X>X>X*X*X*X*X*X*X*X*X*X*X*X0X0X0X0X0X0X0X0X0X0X0X0X0X0X0X=X0X0X0X0X0X*X.X*X*X*X*X.X>X*X>X>XoXoX}.oX}.oXoXoX}.}.",
">X.XoX.X.XoX>X}.>X>X>X*X*X*X*X%X*X*X*X%X%X0X0X0X0X7X0X0X7X7X0X0X7X0X0X0X0X=X=X=X0X%X*X.X*X%X*X*X%X*X>X>X@X>X>X>XoX>XoXoXoX}.}.}.",
"@X.X>X}.oXoX>X>X>X>X>X>X>X>X>X>X>X%X%X%X%X%X%X%X%X7X7X7X7X%X%X%X%X7X7X%X%X%X%X%X%X*X%X.X*X*X*X*X>X>X>X@X>X>X>X>X>X>XoXoXoXoX}.oX",
"oXoXoXoX1X>X*X*X.X*X*X>X>X>X>X>X>X>X%X%X%X%X%X%X%X%X0X7X7X%X%X%X%X7X%X%X%X%X%X%X%X%X%X>X*X*X>X>X>X>X}.oX>XoX>X>X}.>XoXoXoX>XoX>X",
"S.}.oXoX}.>X>X>X>X%X%X>X>X>XoXoXoXoX1X>X@X>X>X1X4X4XyX*X0X9XyXyX*X*X*X*X4XyX4X4X*X*X*X*X*X*X*X%X%X*X>X>X>X>XoX>X>X>XoXoX}.oXoX>X",
"S.oX}.>X.X>X>X>X>X.X>X4X4X6X<XP.P.<XP.<X<X3X3X<X<X<XP.2X<X<X<XP.P.<X<X<X<X<XP.<X<X<X1X1X1X4X4X@X4XyX4X4XoXoX>X>X>X>X>XoXoXoXoXoX",
"S.}.}.>X.X>X*X*X>X}.S.V.q.q.2.3.3.2.,.,.} } N N N N M M g g f f g M g g g f f g N N N N o.-.-.<.2.r.F.P.<XoXoX>X>X>X>X>XoXoX>XoX",
"oX}.}..X>X>X4X1XD.*.R m 0 4 < < < < , < , , , , , , < < , , , < < < < , , , , : : , : : 1 : : : : ; 6 B *.V.1X1X}.>X*X>X@X>XoXoX",
"oX}.}.}.1X}.}.l.n V e.N 8 2 : : : : : < 8 8 8 8 8 < 2 8 8 2 8 8 8 8 2 < 2 8 2 2 2 < 2 2 2 2 2 , , , 8 m t x %.F.S.@XoX>X>X>X>X1X",
"}.}.}.}.}.S.' e C Z.`.3 : 2 2 2 2 2 2 2 < 8 < 8 8 5 8 8 8 8 8 8 8 8 8 2 8 8 8 2 2 2 8 8 8 2 2 < < < < 9 f = x q.V.V.}.}..X*X>X1X",
"{..X{.}.B.U a ,.dX`.7 # 2 q 2 < < < < 8 8 8 8 8 8 8 8 8 8 8 8 8 8 8 8 8 8 8 8 8 8 8 2 2 2 8 < < 5 8 < < j 4.} Z ..q.B.{.>X*X*X4X",
"{.{. XD.&.0  ./.].A # q q q q q 8 8 8 8 8 8 8 q q 8 q q q q q q q q q q q q q q q q q q 8 q q q 8 q 8 8 w ;.:.{ } w.9.l.{..X>XyX",
"{.{. XA.V u s./.6.$ < 8 8 q q q q q q q 8 8 q q q q q q q q q q q q q q q q q q q q q q q q q q q q 8 8 8 8 4 9 8.T.w.Y v.{.%XuX",
"}.{.[.' p { f.y.- o < 8 8 8 q q q q q q q q q q w q q q q q q q w q q q q q q q q q q q q q w q q q 8 8 5 , % @ <.W.t.z ( b.%XqX",
"}..X[.' u :.f.6.# , < 5 q q q q q q q q q q 8 q q q q q q q q q q q q q q q q q q q w w w w w q q q q 8 8 < % # 7.W.w.z Q z. XiX",
"}.{.c.E u >.~.6.> , < 5 q q q q 8 q q q q q q q q w q q q q q q q q q q w q q q q q q w w w w w q q q q 5 < % # 7.E.t.v _ k.0XwX",
"}.{.z.P p 4.~.6.> , 5 8 q q q q q q q q q q q q q q q q q q q w q q w q w w w q q w w w w q w w w q q q 8 5 ; % <.E.w.H _ k. XrX",
"}.{.k.P p 5.^.;.; , 8 5 q 8 8 q q q q q q q q q q q q w w w w w q q w w w w w w q w w w w w w q q w q q q 5 ; % 4.E.t.z _ k.tXrX",
"}.{.h.P i 8.K.:.> , 8 q q q q q q q q w q q w q q q q q q q w w q q q q q w w w w q w w w w w q q q q q q < ; % 4.T.u.H ' v. XtX",
"}.{.h.P i a.U.+.; < 5 8 8 q q q w q q q w w w w w q q q q w w w w w q w q q q q q w w w w w q q q q q q q < ; % 4.W.e.H ` k. XwX",
"}.{.%.P i a.'.+.> 5 5 8 q 8 q q q q w q w w q w w w w w w w w w 9 w w w w w w w q q q q w w w q q q q q w < ; ; 4.W.u.H ` k. XrX",
"}.D.( P i a.'.o.> 5 5 q q 8 9 q q q w w w q w w w q q 9 q w w w w w w w w w w w w w q q w w w w q q q q q < ; ; 4.W.u.L _ j.|.eX",
">X[.` E i y.(.o.> 5 9 8 8 8 q q w q q w w w w w w q w w w w w w w w w w w w w w w w w w w q w q q q w w w 5 ; ; 4.!.e.Y _ j.|.eX",
">Xm.` P i y.^.N > 5 8 9 q 9 q w w q q w w w w w q q q q q w w w w w w q w w w q q w q q w q q q q q w w w 5 ; & 4.!.u.H ` j.N.rX",
">XM.( P i p.^.o.> 5 8 9 9 9 q w w q q q q q w w w q q q q q w q q q q q w q w q q w w w w w q q q w w w w 5 ; & 7.!.i.H ` j.|.eX",
">Xm.` P i p.^.X.> 5 8 9 q 9 q q q q q w q q q q q q q q q w w q q q q q w q q q q w w w w w q q q w w w w 5 ; & 4.!.i.L Q j.|.wX",
"1XM.( P i p.^.h > 5 8 q q q w q q q q q q q q w q q q w q w w q q w w w w w q w w w w q w q q q q q q w w 5 ; % 4.!.i.Y _ j.|.eX",
">Xc.! P i p.^.h > 5 9 q w 8 w w q w q q w w w w q q q q q q w w w w w w w w q q w w w q w w q q q q q w w 5 ; % 4.!.i.Y Q j.|.wX",
"1Xm.! P i p.^.h > 8 8 8 q 9 w w w w q q w w w w q q q w w w w w w w w w w w q w q q w q w w q q q q q q w 5 ; % 4.!.i.J ^ j.|.eX",
"4Xm.Q P i C.^.h > 5 8 8 8 w 9 q w q q q w w q w w q q w w w w w w w w q w w 9 q q w q q q w q q q q q q q 5 > % 4.!.i.Y ^ j.|.eX",
"4Xm.Q P i C.'.h ; 5 9 q q 9 w w q w q q w q w w w q q q w q w w w w w w w q q q q w w w w w q q q q q q w 5 > % 4.!.i.Y Q j. XeX",
"1Xm.Q P p C.^.h > 5 8 q w 9 w w q q q q q q w w w w w w q q w w w w w w w 9 q w q q q q q q 9 q 6 q q q q 5 ; # 4.!.i.Y Q j.|.eX",
"4Xm.Q V i H.^.h ; 5 8 9 9 9 w q 9 q q q q q w w w w q w q w w w q q w q w w q w q q q w q q 9 q q 9 q q q 5 ; # >.!.p.Y Q j.|.eX",
"4Xc.Q V i H.^.h > 5 8 8 9 9 q q q q w q q q q q w q q q q q q q q q q q q w w w q q w w q q q q q q q q q 5 % # >.!.p.Y Q j.|.eX",
"4Xc.Q V i H.^.h > 5 9 9 9 8 w w q q w q q q w q q q q q w q q q 9 q q q q q q q q q w q q w q q q q q q q 5 % # >.!.C.Y Q j.|.iX",
"4Xx.Q b i H.^.h > 5 9 9 w 8 9 w w w w w q q w w w q q q w w w w q w 9 q w w q q q q q q w w q 6 q q q q w 5 % # ;.!.C.Y Q j.|.eX",
"5Xc.Q b i H.^.X.> 5 8 9 w 8 8 w w w q q q q w w w w q w w w w w q q w w q q q 9 q w q q q 9 9 9 q q q q q 5 % # ;.!.C.Y Q j. XiX",
"5Xx.Q b p H.^.X.; 5 8 9 w 9 9 w w w 9 q q q q w w q q w w w w q w q q w q q q q 9 w q q q q w 9 q q q q q 5 % % ;.Q.C.T Q h.|.iX",
"5Xx.Q b p H.^.X.> 5 9 9 9 q w q w w q w w w w w w q w w w w q w w w 9 w q q q q w w q q q w w 9 q q 6 q q 5 % % ;.!.C.T Q g.|.iX",
"5Xx.Q v i d.~.h > 5 9 9 9 9 9 q w q q w q w w w w w q w q q q w w w w 9 6 q q q 9 9 q q 9 q 9 q q q q q q 5 % % ;.!.C.T Q g.|.iX",
"4Xx.Q v i H./.h > 5 8 9 9 9 q q w q q q w q q q w w w w 6 q w w w w w w q q 9 6 6 9 q 6 5 5 9 q 8 8 q 9 q 5 % # ;.Q.C.T Q g.|.iX",
"4Xn.Q v p Y./.h > 5 8 9 w 9 q q w w w w w w w w w w w s s s s s s s s s s s s w w w w w q 9 q q q q q q q 5 % # ;.Q.G.T Q g.|.iX",
"5Xn.J c p Y./.h > 5 9 9 q 9 q w w q w w s s s s s s s d d d d d d g d d d d g d d s s s w w q q q q 8 q q < % # ;.Q.G.T J g.|.iX",
"5Xm.J c ] Y./.o.> 5 9 q 9 9 w w q w s s d g d g m m m m g m m g m m g m g M m d m d d s s s w w q q q q q < % X ;.Q.G.T J g.[.iX",
"5Xm.J c ] R./.o.& 5 9 q w w w w w s d d d d g M m m m m g M m m m m m m g m m m m d d d d s s w q q q q q 5 % X ;.Q.Y.T J g.[.uX",
"5Xm.W c [ R./.h & 5 9 w w w s s s s d g d d g g m m m m d m m m m M m m d m m m m M m d d s s w w q q q q , # @ ;.!.Y.T F g.[.iX",
"5Xm.W k [ R./.N > 5 w w w q s s s d s d d g M M m m M m m m M m M M M m M m C C m m m m d d d s w q q q w < # X ;.!.Y.T F g.[.iX",
"uXm.W k [ R./.N $ , q w w w s s d d d d g M N N M C C C C C C C C C C C Z Z C C B m m m d g g d s w q q w 5 # X ;.!.Y.T D / [.iX",
"5Xn.Q k | R./.o.& 5 w w w w s s s d M d m m M C C C C C C Z C C C Z C B C C C C C m m m m m d g s 6 w 9 q < # . ;.!.Y.T D ~ XXiX",
"uXM.! l | R./.o.& 5 w w w w s d g M m M M M C C C C C C C I C C C U Z C C C I C C C C C m m d g s s y 6 w 5 % X ;._.Y.R S ~ [.iX",
"uXN.) l | E._.N $ 5 w w j s s g M M M C B C Z C U C Z U C I I I I I I I I C I I B B C B m m M M d d y y w 5 O X ;._.Y.R S ~ A.uX",
"5XM.) l } R._.{ & 4 9 s d g m m B C C C C Z C C U C R R I R I I I C I I I I I I C I C C C C C C m d d s w 5 o   ;.W.Y.R S ~ [.iX",
"5Xm.! l Z E._.{ $ 4 9 f m M C I I C C U R R R R I R R R R R R R U U U U R R R R R R R I I I C C m m m d w 5 o   ;.W.Y.R S ~  XfX",
"1Xz.Q l U E.).h $ 4 s N Z I U U R I R #.#.#.#.R #.R @.#.#.R @.R R T @.@.#.#.#.@.#.@.@.U U R I C C C C m f 8 o . ;.W.G.R S ~ [.aX",
"4Xz.Q k ..R.).{ & 6 f Z U @.R R R @.R R R #.#.&.#.#.#.#.&.&.&.&.&.R #.&.#.&.&.&.#.R R T U R R I U U I Z o.w o . :.W.G.R S ~ XXiX",
"pXz.! l ..E.E.h * 6 g @.@.@.R @.@.#.#.R #.#.&.&.&.&.#.&.&.#.0.&.#.#.#.&.#.&.&.&.&.&.&.#.R R #.@.@.R @.O.N w # . :.W.C.R S ~ XXuX",
"pXm.! l ,.R.E.N 3 a M @.R @.@.R R #.#.#.#.9.#.#.9.#.#.&.&.#.&.&.#.&.&.&.&.&.&.&.&.&.&.&.@.@.#.#.U U U @.-.s % . :.W.C.#.S ~ }.aX",
"3Xb.( x 3.Y.f.N 3 6 M U @.@.T R @.R #.@.#.&.&.&.9.9.&.#.&.&.&.&.&.#.&.&.&.&.&.&.&.&.0.&.@.@.@.@.U U R @.-.d # . { E.Y.R D / XXaX",
"6Xm.W x 2.d.f.N 3 6 M @.#.R R #.#.#.#.#.#.&.9.&.9.9.9.#.&.0.9.9.&.&.&.0.0.&.0.&.&.&.&.#.#.#.#.@.@.R @.@.O.d $ X =.T.Y.R J ~ A.uX",
"sXb.W S 2.H.p.{ 6 6 N @.@.R #.R R #.#.9.#.&.9.&.9.9.#.&.9.&.#.&.&.&.&.&.&.9.0.&.#.&.0.#.#.#.#.#.#.@.@.@.@.d & X =.E.Y.&.J / b.yX",
"sXD.^ S r.J.p.{ 6 9 O.1.#.@.R R R #.#.#.@.#.#.#.9.1.1.#.#.9.1.1.&.#.#.#.#.9.9.0.#.#.#.#.#.@.@.@.#.@.@.@.@.d & @ =.E.H.0.J %.A.5X",
"`.L.W r r.J.f.{ 6 s -.@.@.#.@.#.R R U I R @.#.#.#.#.1.@.#.1.1.1.#.#.#.#.#.#.#.#.1.#.#.#.#.@.$.@.@.@.@.$.@.d & + :.R.Z.&.S K l.]."
};
