/* XPM */
static char *e6cf33d23e254830b37928d1fab74b5cZrunfGXIzkrgZCiz[] = {
/* columns rows colors chars-per-pixel */
"64 64 228 2 ",
"   c #231D15",
".  c #261D1B",
"X  c #28190D",
"o  c #2B2214",
"O  c #27221B",
"+  c #2B231C",
"@  c #32241F",
"#  c #1C192D",
"$  c #171528",
"%  c #1D1B31",
"&  c #201927",
"*  c #221B2E",
"=  c #2F1E27",
"-  c #301F26",
";  c #221E33",
":  c #2C2524",
">  c #2D2A25",
",  c #2C232B",
"<  c #2E2A2C",
"1  c #272326",
"2  c #312524",
"3  c #322A24",
"4  c #31252B",
"5  c #322C2D",
"6  c #34312E",
"7  c #242135",
"8  c #2B2434",
"9  c #2D2A33",
"0  c #25223A",
"q  c #2A263A",
"w  c #2E2B3C",
"e  c #312633",
"r  c #322D33",
"t  c #382E35",
"y  c #322C3C",
"u  c #392F3B",
"i  c #2F303B",
"p  c #2F3033",
"a  c #333134",
"s  c #3A3337",
"d  c #3A3835",
"f  c #33323A",
"g  c #3C333C",
"h  c #3D3B3C",
"j  c #412C3F",
"k  c #2F2E42",
"l  c #2C2A49",
"z  c #312E43",
"x  c #3C2D44",
"c  c #372E4B",
"v  c #2F324A",
"b  c #333243",
"n  c #3C3444",
"m  c #35344D",
"M  c #3A364C",
"N  c #3B384D",
"B  c #3A3947",
"V  c #362B54",
"C  c #392B53",
"Z  c #372C59",
"A  c #392D5A",
"S  c #2E3253",
"D  c #363652",
"F  c #3A3553",
"G  c #353956",
"H  c #3B3B54",
"J  c #32375D",
"K  c #3B335C",
"L  c #353B5D",
"P  c #3A3E5C",
"I  c #332F62",
"U  c #2D326A",
"Y  c #2B3266",
"T  c #323365",
"R  c #3B3663",
"E  c #363D63",
"W  c #3A3E63",
"Q  c #33356A",
"!  c #363D6A",
"~  c #393F69",
"^  c #2D3774",
"/  c #2C3D77",
"(  c #2C3E7B",
")  c #243072",
"_  c #313672",
"`  c #333974",
"'  c #363F76",
"]  c #272D65",
"[  c #412F47",
"{  c #423B46",
"}  c #42344B",
"|  c #423C4A",
" . c #423D55",
".. c #453E5C",
"X. c #463B55",
"o. c #413361",
"O. c #413B62",
"+. c #423A68",
"@. c #403F76",
"#. c #3D415D",
"$. c #36405E",
"%. c #26406E",
"&. c #364164",
"*. c #3B4164",
"=. c #36406C",
"-. c #3B426B",
";. c #3D486D",
":. c #3F4967",
">. c #2F407C",
",. c #364472",
"<. c #3B4572",
"1. c #3D4973",
"2. c #34437A",
"3. c #3C457A",
"4. c #3E4A7B",
"5. c #434156",
"6. c #4A4153",
"7. c #43435D",
"8. c #4A455C",
"9. c #4B4A5E",
"0. c #52495D",
"q. c #50465C",
"w. c #434563",
"e. c #4A4562",
"r. c #444966",
"t. c #4D4A64",
"y. c #43446B",
"u. c #4A476A",
"i. c #44496B",
"p. c #4D496B",
"a. c #524D65",
"s. c #534C6B",
"d. c #4A516D",
"f. c #55516B",
"g. c #5A546D",
"h. c #59586E",
"j. c #414674",
"k. c #424A73",
"l. c #424D7B",
"z. c #4C4B70",
"x. c #554E71",
"c. c #45517E",
"v. c #4C5478",
"b. c #535574",
"n. c #5B5571",
"m. c #555974",
"M. c #5A5C75",
"N. c #545579",
"B. c #555A7A",
"V. c #5A5E79",
"C. c #5A617C",
"Z. c #54637B",
"A. c #384682",
"S. c #394A87",
"D. c #3C4D93",
"F. c #455282",
"G. c #495582",
"H. c #45518C",
"J. c #4B5B8C",
"K. c #4B5886",
"L. c #555D83",
"P. c #545E8A",
"I. c #585E80",
"U. c #434D90",
"Y. c #445395",
"T. c #4A5B95",
"R. c #44569B",
"E. c #455A9D",
"W. c #4A5B9C",
"Q. c #495597",
"!. c #5A6484",
"~. c #56638A",
"^. c #586688",
"/. c #4C639C",
"(. c #486299",
"). c #51649B",
"_. c #647B9F",
"`. c #666C94",
"'. c #465EA5",
"]. c #495EA5",
"[. c #465EA9",
"{. c #4A5DAB",
"}. c #4757A4",
"|. c #4661A6",
" X c #4760A5",
".X c #4B60A3",
"XX c #4A60A1",
"oX c #4D62A2",
"OX c #4960A5",
"+X c #4A60A4",
"@X c #4960A7",
"#X c #4A61A7",
"$X c #4962A7",
"%X c #4B62A6",
"&X c #4D62A6",
"*X c #4D62A5",
"=X c #4660A9",
"-X c #4662A9",
";X c #4662AB",
":X c #4960A9",
">X c #4A60A8",
",X c #4962A8",
"<X c #4B62A8",
"1X c #4961AA",
"2X c #4A61AA",
"3X c #4862AA",
"4X c #4B62AB",
"5X c #4C62AA",
"6X c #4962AC",
"7X c #4B62AA",
"8X c #4C69AF",
"9X c #5165A5",
"0X c #5368A7",
"qX c #5166AA",
"wX c #556AAA",
"eX c #586DAC",
"rX c #5868A3",
"tX c #5C70AE",
"yX c #4B64B1",
"uX c #4F6BB5",
"iX c #536DB6",
"pX c #556EBB",
"aX c #586FBB",
"sX c #5570BB",
"dX c #5971BC",
"fX c #5771B0",
"gX c #626FA7",
"hX c #6770A3",
/* pixels */
"T.(. X'.'.2X2XOX X'.2XOX2X2X{.{.2X2X2X2X2X5X5X2X2XOX2X2X2X2X2X2X2X2X2X2X{.2X2X2X2X2X6X2X2X{.2X2X5X5X2XOXOXOXOXOXOX.X.X.X]..X*X/.",
"(. X'.'.'.].].].].].OX].].].].].2X2X2X2X].2X2X2X2X2X2X2XOX2X2X2X2X2X2X{.{.2X2X2X2X2X5X2X{.{.5X5X2XOXOXOXOXOX].].'.E.E..X.XoX&XoX",
" X'.'.].2X].].].].2X{.2X2X2X2X2X2X2X2X2X2X6X2X2X5X2X5X2X2X2X2X4X2X2X2X2X2X2X2X2X2X2X2X2X2X2X2X2X2X2X2X5X2X2XOX].].OX]..XOX&XOX].",
" X].OX].'.].].].2X2X2X2X2X2X2X2X2X2X2X2X2X2X2X2X6X2X2X2X2X2X2X6X2X2X2X2X2X2X2X2X2X-X2X2X2X2X2X2X2X2X2X2XOX2X2XOXOXOXOX].OXOX].].",
"<X].OXOX].&X].2X2X2X2X2X2X2XOX2X2X-X2X2X-X2X-X-X2X2X2X2X2X2X-X2X2X2X-X-X-X2X2X2X2XOXOXOXOX2XOX X X XOXOXOXOX2X2XOXOX].].OXOXOX5X",
"OX&XOX].&X&X{.6X-X6X2X2X2X2XOX X X'. X-X-X[.-X-X'.-X-X-X-X'.'.-X-X-X-X-X'.'. X'. X'.'.'.OXOXOX X2XOXOXOXOX XOXOX].2XOXOX].OX X&X",
"W..X.X&X{.{.{.2X-X<X-X2XOX2X&X.XW.oX*X*X*X&X&X&X&XoXoX&X&X].OX&XOXOXOXOX]..X.XoXoX.X.X.XoX&X.X].5X2XOXOXOX2X2X2XOXOX2XOX].].OX5X",
"].oX].2X2X2X2X2XOX.X&X*X/.T.K.F.G.K.F.F.F.F.l.4.4.3.3.4.4.4.4.4.3.3.4.4.l.l.l.c.c.c.F.c.G.G.K.J.J.).T.W./.*XOX5X5X&X2XOXOXOXOX&X",
"W.].OX5X2X5X5X5X.XT.F.;.O.H F c G G G G G G G P #.w.7.7.w.7.8.w.8.5.5.8.5. . . . .H H H N m N M m H #.*.l.J.).9X&X5X2X2X2X].&X&X",
"&XOX&X2X2X2X&XoXF.K C c x u n N M } } } n n n n n g u t s t s g s g g g g g g g g g g g { { { { B n N M V V =.F.W.9X5X2X5X2X5X&X",
"*XOX].2X5X].W.3.l x 5.8.H N N B n t r t t t 5 4 4 4 4 2 4 , , , : , , 4 4 4 t r r t s s s s s g n { 6.q.8...H J 3.T.OX2X2X4X2X&X",
"2X].2X'.}.H.W c r.B.v.G z t e 4 2 - = , , 4 4 e e r r t r r r r r e e e e 8 8 8 , , , , , , , , 1 8 u X.0.0.a.8.O.;.Y.2X-X6X6XqX",
" X2X[.].H.O.x w.^.v.e.; g g u u u u n n n M H M M M F H H H N H H H H H N N M M m b z z z z z b y w 8 w n 6.0.8.X...y.W.yX6XyXyX",
"'.-X'.W.~ c X.N.C.#.0 w n n M H H H H P L L E E L L L L L L P P P P P P P P #.*.*.*.*.*.*.*.*.#.H H H b w x 6.9. .9...k.R.6X;XyX",
"'.'.'.U.K M f.M.V.v 7 b | H *.&.&.&.&.&.&.&.&.&.&.&.&.&.&.&.&.E E E E E &.&.&.&.&.*.&.&.-.;.;.*.*.*.P G m k n 8.9.9.e.W ' E.[.6X",
"'.'.}.@.x  .h.M.H $ 7 N H P *.&.&.E &.&.&.&.&.&.-.&.E E E E E E &.&.-.-.-.&.&.&.-.&.-.-.&.~ &.&.&.W W L L H z n 9.t.s.7.T D.6X2X",
"}.].R.+.j 9.m.M.q $ 9 H P *.*.&.&.E &.&.&.-.&.E E E E E E E E E E E W W &.E E W -.-.-.-.-.-.-.-.&.&.W E L m q b 9.t.s.e.R S.8XiX",
"E.E.D.R j t.C.m.0 $ y w.*.*.*.&.E E *.E L L L E E E E W E E ! E E E E E E E E E E E W ~ ~ W ~ E ~ &.W W L m 8 y 9.t.t.e.K A.{.uX",
"R.E.D.o.n f.Z.d.7 # b r.&.&.E E E E L E E E E W W W W -.-.-.=.=.! ! E E E E W W E E E E W W ~ E W -.W W P D 7 f 9.a.t.p.R 2.{.iX",
"E.].A.o.x b.Z.t.7 & M i.&.&.E L E E E W W W E W -.-.-.;.<.1.1.-.=.=.! ! E E E W E E E W W E E E W W W E W m * w t.a.t.p.R 2.yXsX",
"E.].A.K [ v.^.r.; * M i.*.&.E E E &.W W W W ~ =.-.-.-.S q b G i.1.<.,.! ! E E E E E E W W E E E E E E E W D * w t.a.e.p.O.2.yXuX",
"E.W.3.F [ K.^.7.; * M i.*.&.E E &.E W W W ! =.=.=.-.D . X   1 f *.<.,.! ! ! ! E E ~ E E E E W E E E E E &.m * w t.a.e.p.O.2.[.iX",
"W.W.2.F } P.^.7.* * H i.&.E E E E E W W ~ =.=.,.,.,.S + o O >   9 =.2.,.,.,.! ! ~ ! ~ E ~ E E E E E E E *.D * y a.a.t.p.R 2.{.iX",
"oXQ.<.A } P.^.#.# 8 P i.&.E E E E &.&.-.=.,.<.1.<.1.v , 3 5 > :   z 1.,.,.,.,.=.~ ! ~ ! ! -.! E E E -.E -.m * y a.a.t.p.R 2.6XsX",
"qXW.' A  .P.^.H # 7 P y.-.E E -.W -.-.-.=.<.1.1.1.i.i : 6 d d 5 O O b 1.,.1.<.,.,.=.=.=.-.~ E W E E E E -.m * y a.a.t.u.R 2.{.sX",
"&XQ.` A X.P.^.H # 7 #.i.-.W E -.-.;.;.-.-.;.;.i.d.w.f > 6 h h d : + , m *.;.k.k.<.<.1.<.=.-.E W E E ~ W &.m * y a.a.t.u.R 2.{.pX",
"5XY.! A X.~.!.P * ; P ;.-.W E -.-.;.i.*.H b a a B h r 5 6 d s a 5 5 5 < < 9 b b D O.y.y.-.-.-.-.E -.-.W *.m * y a.a.p.u.R 2.{.sX",
"qXY.! C ..~.!.H # 8 #.-.-.E E -.-.G 8 : 2 2 : + : : 5 5 5 r r r r r r 5 5 3 : O   . 1 r H ;.-.-.~ E &.W *.m # y a.a.p.u.R 2.{.sX",
"qXY.Q C ..P.!.P ; 8 #.-.~ E ! E L u @ @ 5 5 5 5 < < r a a a a a a a a 6 5 6 6 6 3 + o + z =.-.W W W W W W m # y f.a.p.u.R 2.{.iX",
"qXY.Q C ..L.I.H % q 7.-.=.E E =.G t 3 3 a 6 6 5 5 a a a a f a a a a a a r 5 a 5 5 5 3 o 9 =.;.-.W &.W E *.D ; w a.g.p.u.R >.[.iX",
"wXY.Q C 7.L.!.P % 8 7.-.=.! ! ! G 5 3 5 6 6 6 6 6 a a a a f a a a a a r r a a 6 6 6 6 + 9 -.-.-.-.W W W *.m * w a.g.s.y.Q >.{.iX",
"wXY.Q A e.L.!.P % q w.&.-.! E E L 5 3 6 6 a a a a a a a a f f f a f a a a a a a a 6 5 + f ;.=.-.-.&.W E *.D * w f.f.s.y.Q >.{.iX",
"9XH.Q C e.L.V.P # q w.*.-.E E E $.e 2 5 6 a s a a a a r f f f f f f f a r a a a a a 5 5 B -.;.-.-.&.W W *.H * y f.f.s.y.Q >.{.pX",
"wXY.Q C e.L.C.H # q w.*.-.E E E *.b . 3 6 a a a a a a r f f i f f f f a a a a a a a 5 < H &.=.-.~ -.&.W *.D * q a.f.s.y.Q >.{.iX",
"eXY.Q C e.B.C.H # q w.*.&.E E E &.*.9 1 a a a a a r a a f i w f f f f y f f a a r r 5 r #.;.=.-.W &.&.&.*.D * q f.g.s.y.Q >.{.pX",
"wXY.Q C e.B.C.H # q w.*.*.E E E E i.*.8 r a r r r a a a f 9 y f f f f f f f f a a a r f *.k.-.-.W -.&.W *.H * w f.g.s.y.Q >.{.pX",
"*XY.Q C e.B.C.H # q w.*.*.E L E E ;.k.L y r r e 5 a a f a r r f f f f f f a a a r r r b ;.k.-.~ W -.&.W *.D * q f.g.s.y.Q >.{.pX",
"wXY.Q C e.B.C.H # q w.y.*.W J J E =.j.k.L y e 5 5 r a f f r r f f a a a a a a r r r 5 k ;.1.-.-.~ ~ &.W *.H * 8 f.n.s.y.Q >.{.pX",
"wXY.T C e.B.V.H # q w.y.y.W L L L ~ <.l.3.m 9 e r a f a f r r f f a a a r 9 r r r 5 5 z k.1.-.-.~ E -.W *.H * q f.n.s.y.Q ( {.pX",
"wXY.Q C e.B.M.H # q w.y.y.&.L L E E =.4.l.G w t e r f s f r r a f r r a a a a r r < 5 b k.1.-.-.E &.-.*.y.H # q h.n.s.y.Q ( {.pX",
"0XY.Q C e.B.V.H # q w.y.*.W L J E E ! 4.l.W w 5 5 a f f f e r f f r r a a a a r r < , b k.;.-.-.W -.-.&.w.F # 8 g.n.s.y.Q ( {.pX",
"wXY.Q C e.B.M.H # q w.r.y.W L J L E ! <.l.-.y 4 5 p s s f r r f f r r a a a a r r < , b k.;.-.-.W E -.&.y.H # 8 f.n.x.y.Q ( {.pX",
"wXR.U C e.B.M.H # q w.r.y.W L L L E E ,.l.1.y 2 > a a s f r 9 f f 9 < r a a a a r < , m k.;.-.-.E -.-.&.y.N # 8 f.n.x.y.Q ( {.pX",
"9XR.U C e.B.M.H # q w.r.w.W L E E E E =.l.j.w : > a a a s r 9 y f 9 , r r a a a r e 8 N k.-.W &.W W -.&.w.H # q g.n.x.y.Q ( {.pX",
"0XY.U C e.B.M.H # q w.r.y.W L E E E E ~ 1.k.k : 3 6 a a a 5 < f G m 8 , 6 a a a a e 8 H k.-.&.&.E &.&.&.w.H # 8 h.n.x.y.Q / {.pX",
"wXY.U C e.m.M.H # q w.u.w.W L E E E E ~ 3.k.z > > 6 6 6 a : : m k.v.S # : 6 r t a r 8 P k.-.-.-.W &.&.W y.N # 8 g.n.x.y.Q / {.pX",
"tXR.U C e.B.M.H # q w.r.y.W L E E E E ~ <.4.v < > 6 r 6 6 o & E c.G.1.D w , : : 3 5 w *.k.-.-.W E E &.W y.H # q g.n.x.y.Q / {.dX",
"eXY.Q C e.B.V.H # 0 w.r.y.W L L W W W W =.l.L , > : : > +   l 4.4.c.l.k.y.P D m b G y.i.y.&.W E E &.E W y.m # q g.n.x.r.T / {.pX",
"0XY._ C e.m.V.H # 0 w.u.y.W L E W W W E -.l.;.k r , 1 : 3 z <.F.;.1.1.y.j.k.j.j.l.l.k.-.W W &.W E W W W w.m # q h.n.s.y.T / {.aX",
"eXR._ C e.m.M.H # 0 w.u.y.W L W W W W W E ;.k.i.*.H G #.w.y.y.i.-.-.-.-.-.-.=.-.-.-.E E W W E W W &.&.W w.F # 8 g.g.s.y.T / {.dX",
"wXR._ C e.m.M.H # 0 w.u.y.W L W W W W W W -.;.y.y.;.;.y.;.-.*.*.*.W &.-.-.-.&.&.W &.W W E W W W W W W W y.H ; q n.h.s.y.T / {.aX",
"eXE.` C t.B.M.H % 0 w.u.y.W L W W W W &.W W &.-.-.-.-.-.-.-.*.&.&.W W W W &.&.&.W W W W W W W W E W W W r.H ; q h.n.x.y.T / }.iX",
"eXE.` C e.B.V.H # 0 w.u.y.W E W *.W W &.W &.W &.&.&.&.*.W W *.*.-.W W W W W W W W W W W &.&.&.*.E W W W y.H ; q h.n.x.y.T / }.iX",
"0XR.^ Z t.m.V.H # 0 w.u.y.W E W W W W W W W &.W &.&.*.*.W W W W W &.&.W W W W W W W W W W *.&.W W W W W y.H ; 8 n.n.x.y.T / {.pX",
"oXR.` A t.m.M.G % 0 w.u.y.W E W W -.W *.&.W W W &.&.&.*.W W *.*.W W W W W W W *.*.W &.W W W W W W W W W w.H ; 7 n.n.x.y.T ( {.pX",
"9XW._ A t.m.M.H % 0 w.u.y.W E W W W W W W *.*.W *.*.W *.*.W *.&.W W W W W W W *.W W W *.W W W P W W W P w.D ; 0 n.n.x.y.T ( {.pX",
"9XR.` Z t.b.M.G % 0 w.u.y.W E W -.&.W *.&.*.*.*.*.*.W W *.*.*.&.W &.W W W W W W W W W W W W W W L W W W y.H ; 0 n.n.x.y.Q / {.dX",
"wXR.` K t.b.m.H ; 0 w.u.*.W E E &.&.&.W *.*.*.W W W W W W W W W W W W W W W W W W W W W &.*.W *.P P P P y.G 7 0 n.n.x.y.T / {.dX",
"eXR._ R u.B.m. .; 0 w.u.y.W W E &.W W W *.*.*.W W W *.*.*.W W W W W W W W W W W W W W W W W *.W W W P P y.G ; 7 n.n.x.y.T / {.aX",
"rXR.` R z.b.M.H ; 0 7.u.y.*.W W &.*.W &.W W *.W *.*.*.W *.*.W W W W W W W W W W W W W W W W W W W P W *.w.H % 0 h.n.b.y.T ( {.dX",
"gXW.^ I p.b.M. .; 0 #.r.y.W W W W *.*.*.*.*.*.W *.*.*.W *.*.W *.W W W W W W W W W W W *.W W W W W P *.#.w.H ; q n.n.x.y.Q ( }.iX",
"hXW.^ T p.N.V. .7 7 #.i.-.*.W W *.*.*.*.*.*.*.W *.*.*.W *.W W *.*.W W W W W W W W W W W W *.W *.*.W *.*.*.G 7 8 M.n.b.y.Q ( R.8X",
"`.W./ U v.B.V.5.; 0 w.y.*.*.W E W *.W W W *.*.W *.*.W W W W W *.W W W W W W W W W W W W L P P W *.*.P P w.H 7 8 M.n.b.y.Q A.}.fX",
"`.).) ] L.B.V.H ; 0 w.:.y.*.W &.W *.*.W W W W W *.*.*.*.W W #.*.*.W *.*.W W W W W *.W W P P P P #.*.*.L w.D ; 8 n.m.N.~ Y / S._."
};
