/* XPM */
static char *_1bda4c5a89c47ccf9e018399f1cfb5czEPPBawpH5metG3a[] = {
/* columns rows colors chars-per-pixel */
"64 64 208 2 ",
"   c #2C2C3C",
".  c #272435",
"X  c #342D3D",
"o  c #2E3138",
"O  c #35333D",
"+  c #3A313D",
"@  c #55483F",
"#  c #2C2D42",
"$  c #322D44",
"%  c #3A2F43",
"&  c #332D4A",
"*  c #2B3147",
"=  c #343445",
"-  c #3C3446",
";  c #35324D",
":  c #393349",
">  c #34394C",
",  c #3D3C4D",
"<  c #342E59",
"1  c #342E50",
"2  c #3C3653",
"3  c #3C3B5C",
"4  c #393755",
"5  c #2F3D6A",
"6  c #373C63",
"7  c #3C3D64",
"8  c #3C3D6B",
"9  c #373E68",
"0  c #3F3E71",
"q  c #403C5D",
"w  c #433455",
"e  c #413D64",
"r  c #493E64",
"t  c #433D6C",
"y  c #493966",
"u  c #423E70",
"i  c #3F415D",
"p  c #36415F",
"a  c #3C4264",
"s  c #35436C",
"d  c #3D436B",
"f  c #3D496C",
"g  c #3D4866",
"h  c #3D4573",
"j  c #3D4A73",
"k  c #3C4379",
"l  c #3C4B7A",
"z  c #364974",
"x  c #3E507E",
"c  c #574C48",
"v  c #5D524D",
"b  c #57564A",
"n  c #42445C",
"m  c #4A4859",
"M  c #554A53",
"N  c #544D5B",
"B  c #564858",
"V  c #5C5554",
"C  c #5C5952",
"Z  c #5D535B",
"A  c #555D5D",
"S  c #5F585E",
"D  c #535259",
"F  c #645B4D",
"G  c #66564A",
"H  c #604B52",
"J  c #635553",
"K  c #625B54",
"L  c #645A59",
"P  c #695A5D",
"I  c #676154",
"U  c #65605D",
"Y  c #424365",
"T  c #444A63",
"R  c #43456D",
"E  c #49416C",
"W  c #43496D",
"Q  c #4D496D",
"!  c #4E4363",
"~  c #524E67",
"^  c #545363",
"/  c #444774",
"(  c #4A4574",
")  c #454974",
"_  c #494C74",
"`  c #44467A",
"'  c #49467A",
"]  c #454A7A",
"[  c #494A7B",
"{  c #50477C",
"}  c #485278",
"|  c #645A62",
" . c #7C7A70",
".. c #8C7E6D",
"X. c #887866",
"o. c #917E6D",
"O. c #897576",
"+. c #957F74",
"@. c #7D8075",
"#. c #978E6F",
"$. c #9D8B77",
"%. c #998A7B",
"&. c #9E9479",
"*. c #A0906F",
"=. c #A28D7C",
"-. c #A39476",
";. c #BAAC7D",
":. c #CCB37D",
">. c #F6A37F",
",. c #F0AC7F",
"<. c #3F4785",
"1. c #454682",
"2. c #4B4A82",
"3. c #464981",
"4. c #9C8E85",
"5. c #9D9483",
"6. c #A49383",
"7. c #BB9F87",
"8. c #BCAF87",
"9. c #BDB18C",
"0. c #BEB081",
"q. c #C3AD8A",
"w. c #C5AB8A",
"e. c #C3B185",
"r. c #C5B38C",
"t. c #CCBC8D",
"y. c #C8B589",
"u. c #D0B58A",
"i. c #C4AF9A",
"p. c #C6B494",
"a. c #C9B798",
"s. c #D3BD92",
"d. c #D4BC9A",
"f. c #DBBE9C",
"g. c #EEA583",
"h. c #EDA982",
"j. c #F6A485",
"k. c #F5AB84",
"l. c #F3A689",
"z. c #F4AC8C",
"x. c #FBAA8B",
"c. c #F9A983",
"v. c #E7B58B",
"b. c #F2B38C",
"n. c #F7B78C",
"m. c #FAAD91",
"M. c #EEB695",
"N. c #EFBC91",
"B. c #F5B695",
"V. c #C3B0A9",
"C. c #D0BCA1",
"Z. c #D3C088",
"A. c #CEC194",
"S. c #D7C39A",
"D. c #ECCA9D",
"F. c #EAC798",
"G. c #F2CF9C",
"H. c #F6C197",
"J. c #ECD09D",
"K. c #EBD699",
"L. c #F4D596",
"P. c #F3DD96",
"I. c #F5D49C",
"U. c #F4DD9C",
"Y. c #F9DB9E",
"T. c #F8D09C",
"R. c #FDE29C",
"E. c #F6E19E",
"W. c #EFCEA1",
"Q. c #E6CEA2",
"!. c #F5CDA2",
"~. c #FFCAA3",
"^. c #F8CFAF",
"/. c #EDD4A3",
"(. c #EDDCA3",
"). c #EED5AB",
"_. c #E4DBA2",
"`. c #F4D5A5",
"'. c #FCD4A4",
"]. c #F4DBA4",
"[. c #FCDBA5",
"{. c #F5D6AA",
"}. c #FCD5AA",
"|. c #F4DBAB",
" X c #FBDBAC",
".X c #F5DDB4",
"XX c #FDDCB3",
"oX c #FCDCBB",
"OX c #F5D7B3",
"+X c #FCE1A4",
"@X c #F4E4AC",
"#X c #FDE3AC",
"$X c #FFE9AD",
"%X c #F4E2A0",
"&X c #F3E4B3",
"*X c #FCE3B2",
"=X c #FFEBB3",
"-X c #F3E0BE",
";X c #F9E4BB",
":X c #FDE8BB",
">X c #F3E9B6",
",X c #F6DDC3",
"<X c #EFE7C0",
"1X c #F5EAC3",
"2X c #F5EACC",
"3X c #FEEADC",
"4X c #FEF4DA",
"5X c #FFF1D7",
/* pixels */
"/ / / / / / / / / / / / / / / / / / / / / / / / / / / / / / / / / / / / / / / / / / / / / / / / / / / / / / / / / / / / / / / / ",
"/ / / / / / / / / / / / / / / / / / / / / / / / / / / / / / / / / / / / / / / / / / / / / / / / / / / / / / / / / / / / / / / / ",
"/ / / / / / / / / / / / / / / / / / / / / / / / / / / / / / / / / / / / / / / / / / / / / / / / / / / / / / / / / / / / / / / / ",
"/ / / / / / / / / / / / / / / / / / / / / / / / / / / / / / / / / / / / / / / / / / / / / / / / / / / / / / / / / / / / / / / / ",
"/ / / / / / / / / / / / / / / / / / / / / / / / / / / / / / / / / / / / / / / / / / / / / / / / / / / / / / / / / / / / / / / / ",
"/ / / / / / / / / / / / / / / / / / / / / / / / / / / / / / / / / / / / / / / / / / / / / / / / / / / / / / / / / / / / / / / / ",
"/ / / / / / / / / / / / / / / / / / / / / / / / / / / / / / / / / / / / / / / / / / / / / / / / / / / / / / / / / / / / / / / / ",
"/ / / / / / / / / / / / / / / / / / / / / / / / / / / / / / / / / / / / / / / / / / / / / / / / / / / / / / / / / / / / / / / / ",
"/ / / / / / / / / / / / / / / / / / / / / / / / / / / / / / / / / / / / / / / / / / / / / / / / / / / / / / / / / / / / / / / / ",
"/ / / / / / / / / / / / / / / / / / / / / / / / / / / / / / / / / / / / / / / / / / / / / / / / / / / / / / / / / / / / / / / / ",
"/ / / / / / / / / / / / / / / / / / / / / / / / / / / / / / / / / / / / / / / / / / / / / / / / / / / / / / / / / / / / / / / / ",
"/ / / / / / / / / / / / / / / / / / / / / / / / / / / / / / / / / / / / / / / / / / / / / / / / / / / / / / / / / / / / / / / / ",
"/ / / / / / / / / / / / / / / / / / / / / / / / / / / / / / / / / / / / / / / / / / / / / / / / / / / / / / / / / / / / / / / / ",
"/ / / / / / / / / / / / / / / / / / / / / / / / / / / / / / / / / / / / / / / / / / / / / / / / / / / / / / / / / / / / / / / / ",
"/ / / / / / / / / / / / / / / / / / / / / / / / / / / / / / / / / / / / / / / / / / / / / / / / / / / / / / / / / / / / / / / / ",
"/ / / / / / / / / / / / / / / / / / / / / / / / / / / / / / / / / / / / / / / / / / / / / / / / / / / / / / / / / / / / / / / / ",
"/ / / / / / / / / / / / / / / / ] ] / / R / / / T R ' ' / h l l d _ W R ' ' ( _ R R / / ) ) W W / / / / / / / / / / / / / / / / ",
"/ / / / / / / / / / / / / / / / ] ] / / / R / / ) R u E Y 7 a s d ) ) / ] [ / R R R / / ) ) ) R / / / / / / / / / / / / / / / / ",
"/ / / / / / / / / / / / / / / / / / / ) ) ) ] ] ] 8 < & $ O = > d h ) k k ] ] / R R / / ` [ [ ] / / / / / / / / / / / / / / / / ",
"/ / / / / / / / / / / / / / / / R R ) ) ) ) ] ] 1.8 & + @ F F V a 9 h 3.k h ] ] R / / / ` [ [ [ / / / / / / / / / / / / / / / / ",
"/ / / / / / / / / / / / / / / / R R ) / / h h j ] R , v *.t.q.-.m 4 7 ] ] j ) ] / / h 0 / ( ' ' / / / / / / / / / / / / / / / / ",
"/ / / / / / / / / / / / / / / / R R R / / ) j j ] 7 O G e.=X@XS...Z 2 7 W W ) ] ] ) / / / / ( ( / / / / / / / / / / / / / / / / ",
"/ / / / / / / / / / / / / / / / R d d R / ) ) W / 3 + G w.#X#X/.s.=.Z 2 i T W ) l h h ] ) / R R / / / / / / / / / / / / / / / / ",
"/ / / / / / / / / / / / / / / / ) W d d d d a p 9 Y N O.d.{. XXX+Xd.O.B n n 3 6 5 5 h h ) ) R Y / / / / / / / / / / / / / / / / ",
"/ / / / / / / / / / / / / / ) / 2.7 2 % % - X O X Z 4.C.).|.|.|.#X/.s.$.J % $ = < ; O - n R / ) / / / / / / / / / / / / / / / / ",
"/ / / / / / / / / / / / / ` / / R n Z L J J v v c ..d..X*X`.`.{.;X:X&Xa...F Z | | L I V m e h h / / / / / / / / / / / / / / / / ",
"/ / / / / / / / / / / / / ] / d ; N 5.p.r.q.p.a.e.s.J.`.I.`. XoX2X1X>X_.t.9.i.V.w.e.y.-.Z 4 8 ` / / / / / / / / / / / / / / / / ",
"/ / / / / / / / / / / / ] ] / 9 $ L p.=X+X XXXXX#X].L.L.Y.[.{.{.4X2X<X&X@X&X&XOX[.+X$Xr.J & 8 ] / / / / / / / / / / / / / / / / ",
"/ / / / / / / / / / / / ] ] / 9 : J 8.+XR.[. X`.|.].].Y.Y.].].|.1X2X4X5X;X|.].I.[.Y.[.r.J & R / / / / / / / / / / / / / / / / / ",
"/ / / / / / / / / / / / / ] / 8 # L r.$X+X[. X}..X.X{.].I.].].@X(.-X3X3X-X].Y.I.}.[.*Xp.J $ 8 ) / / / / / / / / / / / / / / / / ",
"/ / / / / / / / / ) / / / / / d $ U 9.|.+X[.`.{.|.{.{.[.[.[.]./.#XXX,X,X|.].].{. X#X*Xp.J & 8 ] / / / / / / / / / / / / / / / / ",
"/ / / / / / / / / ) ] / / / / R , C #.t.].*X|.|.J.J.G.G.T.`.{.{.[.}.OX|.U.U. XoX XK.Z.-.V 3 / k / / / / / / / / / / / / / / / / ",
"/ / / / / / / / / / / / / / / / r ! M X.S.*X X'.n.,.c.x.m.B.!.|.].].|.{.}.}. XXXE.A. .m R u R ) / / / / / / / / / / / / / / / / ",
"/ / / / / / / / / / / / / / / / _ 7 > V $.d.{.'.n.k.>.j.l.M.W.].].].|.{.}.}. X XU.e.K = e ( / W / / / / / / / / / / / / / / / / ",
"/ / / / / / / / / / / / / / / / x s a n c o.f.`.b.k.>.>.g.M.W.(.].].|.{. X X X].U.;.b   7 ' [ ) / / / / / / / / / / / / / / / / ",
"/ / / / / / / / / / / / / / / / z z } R & M %.a.v.b.k.j.l.B.!.].}.{.|.{. X}.].].U.0.F = e / ) ) / / / / / / / / / / / / / / / / ",
"/ / / / / / / / / / / / / / / / W f _ / 8 e D @.u.F.b.k.x.B.~.'.}.{.`.`.{.[.].].Y.e.I : e / / d / / / / / / / / / / / / / / / / ",
"/ / / / / / / / / / / / / / / / W Y Y ( 2.8 * A r.D.v.h.l.z.~.'.}.[.].`.{.].].].$Xr.K & 8 ` / d / / / / / / / / / / / / / / / / ",
"/ / / / / / / / / / / / / / / / / R Q E { t $ A r.).N.h.z.b.'.[.[.[.{.].].].].].#Xr.V & u 2.] h / / / / / / / / / / / / / / / / ",
"/ / / / / / / / / / / / / / / / 1.8 Q E ( y - L q.{.H.b.B.N.{.(.[.[.|.|.{.[.].]. Xq.J & 0 1.' l / / / / / / / / / / / / / / / / ",
"/ / / / / / / / / / / / / / / / ' / ] z l d : P :. X^.^.}.D. X XP.E.@X+X[.[.{.`.XXi.L = a W W _ / / / / / / / / / / / / / / / / ",
"/ / / / / / / / / / / / / / / / ' / j s ] a + L :.{.XX X[.].*XQ.t.9.8.t.F.T.[.#X#Xr.C = T _ / / / / / / / / / / / / / / / / / / ",
"/ / / / / / / / / / / / / / / / ' / f g } i X J :.].#XY.Y.$X:Xd. .C c X.w.D.'. X$Xr.b o i _ / / / / / / / / / / / / / / / / / / ",
"/ / / / / / / / / / / / / / / / ` ) g g _ 3 X J e.|.+XP.R.].d.=.~ $ . M +.7.w.p.y.&.b > a R ) ` / / / / / / / / / / / / / / / / ",
"/ / / / / / / / / / / / / / / / / _ W d ) 3 = S r.;X*X].$Xs.X.H r e 3 m M v J L J S n a _ W / / / / / / / / / / / / / / / / / / ",
"/ / / / / / / / / / / / / / / / ` _ W R ) 8 3 ^ 6.i.p.q.p.%.M w y E / Y 2 $ # # $ q d ` [ E W W / / / / / / / / / / / / / / / / ",
"/ / / / / / / / / / / / / / / / ` ( R / ' / R T V L L F K D q 8 t / k h R Y a 6 e ( k ` / R ) ) / / / / / / / / / / / / / / / / ",
"/ / / / / / / / / / / / / / / / ' ( R ' 3.1.] a =   O O o > h <./ k l l ) Y Y R Q [ k ` ` ( ) R / / / / / / / / / / / / / / / / ",
"/ / / / / / / / / / / / / / / / / / / / / / / / d 8 9 9 8 d R / / / / / / / / / / / / / / / / / / / / / / / / / / / / / / / / / ",
"/ / / / / / / / / / / / / / / / / / / / / / / / / / / / / / ) ) / / / / / / / / / / / / / / / / / / / / / / / / / / / / / / / / ",
"/ / / / / / / / / / / / / / / / / / / / / / / / ) ) ) / / / ) ) / / / / / / / / / / / / / / / / / / / / / / / / / / / / / / / / ",
"/ / / / / / / / / / / / / / / / / / / / / / / / / / / / / / / / / / / / / / / / / / / / / / / / / / / / / / / / / / / / / / / / ",
"/ / / / / / / / / / / / / / / / / / / / / / / / / / / / / / / / / / / / / / / / / / / / / / / / / / / / / / / / / / / / / / / / ",
"/ / / / / / / / / / / / / / / / / / / / / / / / / / / / / / / / / / / / / / / / / / / / / / / / / / / / / / / / / / / / / / / / ",
"/ / / / / / / / / / / / / / / / / / / / / / / / / / / / / / / / / / / / / / / / / / / / / / / / / / / / / / / / / / / / / / / / ",
"/ / / / / / / / / / / / / / / / / / / / / / / / ) ) ) / / / / ) / / / / / / / / / / / / / / / / / / / / / / / / / / / / / / / / ",
"/ / / / / / / / / / / / / / / / / / / / / / / / / / / / / / / / / / / / / / / / / / / / / / / / / / / / / / / / / / / / / / / / ",
"/ / / / / / / / / / / / / / / / / / / / / / / / / / / / / / / / / / / / / / / / / / / / / / / / / / / / / / / / / / / / / / / / ",
"/ / / / / / / / / / / / / / / / / / / / / / / / / / / / / / / / / / / / / / / / / / / / / / / / / / / / / / / / / / / / / / / / ",
"/ / / / / / / / / / / / / / / / / / / / / / / / / / / / / / / / / / / / / / / / / / / / / / / / / / / / / / / / / / / / / / / / ",
"/ / / / / / / / / / / / / / / / / / / / / / / / / / / / / / / / / / / / / / / / / / / / / / / / / / / / / / / / / / / / / / / / ",
"/ / / / / / / / / / / / / / / / / / / / / / / / / / / / / / / / / / / / / / / / / / / / / / / / / / / / / / / / / / / / / / / / ",
"/ / / / / / / / / / / / / / / / / / / / / / / / / / / / / / / / / / / / / / / / / / / / / / / / / / / / / / / / / / / / / / / / ",
"/ / / / / / / / / / / / / / / / / / / / / / / / / / / / / / / / / / / / / / / / / / / / / / / / / / / / / / / / / / / / / / / / "
};
