/* XPM */
static char *b78370fd6d934c49bf4857d543d1650f[] = {
/* columns rows colors chars-per-pixel */
"64 64 255 2 ",
"   c #1D1118",
".  c #2A131C",
"X  c #2D2733",
"o  c #201D28",
"O  c #403532",
"+  c #352A46",
"@  c #353447",
"#  c #37265B",
"$  c #2C365B",
"%  c #373C5A",
"&  c #2E2D52",
"*  c #271D64",
"=  c #2C2266",
"-  c #392867",
";  c #3B3B65",
":  c #393A6A",
">  c #2D3A71",
",  c #2D276D",
"<  c #45364A",
"1  c #443152",
"2  c #422866",
"3  c #423D6A",
"4  c #463A65",
"5  c #533A65",
"6  c #453675",
"7  c #50387A",
"8  c #7D366D",
"9  c #3D445E",
"0  c #2B436E",
"q  c #3B436D",
"w  c #3C4465",
"e  c #2C4777",
"r  c #3D4473",
"t  c #3D4C74",
"y  c #3B4B7C",
"u  c #364778",
"i  c #395177",
"p  c #2D547B",
"a  c #4C445D",
"s  c #444365",
"d  c #4B4465",
"f  c #44466D",
"g  c #454A6E",
"h  c #4B4A6D",
"j  c #484869",
"k  c #544868",
"l  c #525169",
"z  c #454673",
"x  c #494571",
"c  c #464B73",
"v  c #494C73",
"b  c #4A467A",
"n  c #444C7B",
"m  c #4A4D7A",
"M  c #44457A",
"N  c #554A77",
"B  c #455275",
"V  c #4A5175",
"C  c #4B527B",
"Z  c #45547C",
"A  c #55567A",
"S  c #4D5269",
"D  c #664676",
"F  c #6C4D74",
"G  c #606179",
"H  c #57627F",
"J  c #8A3363",
"K  c #8D4C7A",
"L  c #A15E75",
"P  c #3B3C84",
"I  c #523C83",
"U  c #294C85",
"Y  c #384983",
"T  c #395489",
"R  c #275798",
"E  c #385B97",
"W  c #275A84",
"Q  c #3A6199",
"!  c #38618F",
"~  c #3C67A7",
"^  c #3871B1",
"/  c #2259A1",
"(  c #484886",
")  c #564485",
"_  c #435484",
"`  c #4C5382",
"'  c #475989",
"]  c #545787",
"[  c #465C95",
"{  c #525B93",
"}  c #685996",
"|  c #6A4C8C",
" . c #596789",
".. c #486397",
"X. c #58699B",
"o. c #4D618C",
"O. c #786A96",
"+. c #6B6C94",
"@. c #505AA6",
"#. c #7754B4",
"$. c #486BA6",
"%. c #5A6CA6",
"&. c #4A70AB",
"*. c #4A75B8",
"=. c #5778B9",
"-. c #5673AC",
";. c #6775A9",
":. c #647DB8",
">. c #537BC3",
",. c #5B76C3",
"<. c #6774C8",
"1. c #833F84",
"2. c #8F5693",
"3. c #B15690",
"4. c #AE6D95",
"5. c #8560A0",
"6. c #887498",
"7. c #C65693",
"8. c #C66599",
"9. c #C86AA7",
"0. c #DA6AA6",
"q. c #CE79A4",
"w. c #E066A1",
"e. c #5884BD",
"r. c #7C83A6",
"t. c #628ABA",
"y. c #3686D0",
"u. c #4784C6",
"i. c #5D83C4",
"p. c #5C85CA",
"a. c #5B8DCB",
"s. c #598DC9",
"d. c #4289D5",
"f. c #5C8DD6",
"g. c #4C94DB",
"h. c #5A94DB",
"j. c #5A96D8",
"k. c #5991CC",
"l. c #6285C5",
"z. c #658AC9",
"x. c #6396DB",
"c. c #649BDD",
"v. c #6C9CDB",
"b. c #6396D5",
"n. c #739AD8",
"m. c #6990CC",
"M. c #6DA2DF",
"N. c #75A8D5",
"B. c #4C96E7",
"V. c #559CE3",
"C. c #5D9DE5",
"Z. c #549DEB",
"A. c #5D9EE9",
"S. c #5695E5",
"D. c #599EF3",
"F. c #4C8DE1",
"G. c #629EE5",
"H. c #6B9EE4",
"J. c #629EE9",
"K. c #6A9EEA",
"L. c #6896E3",
"P. c #729EE9",
"I. c #629AF1",
"U. c #5EA1E6",
"Y. c #5DA2EB",
"T. c #55A5EC",
"R. c #5DA4F2",
"E. c #5AA8F5",
"W. c #51ADF3",
"Q. c #63A1E6",
"!. c #6BA2E6",
"~. c #63A2EA",
"^. c #6BA4EB",
"/. c #6BAAED",
"(. c #66ABEA",
"). c #72A3E5",
"_. c #72A3EA",
"`. c #77ABE9",
"'. c #76B1EA",
"]. c #64A5F1",
"[. c #6CABF4",
"{. c #69A8F5",
"}. c #74ACF3",
"|. c #67B3F7",
" X c #7DB5F4",
".X c #76B4F9",
"XX c #5ECCF5",
"oX c #5ED7FA",
"OX c #59CFE5",
"+X c #66CBEE",
"@X c #65CAFA",
"#X c #75C9FF",
"$X c #63DBFF",
"%X c #6ADAFF",
"&X c #65D4FA",
"*X c #79D8FB",
"=X c #62D0E6",
"-X c #5EE0FF",
";X c #6DE2FF",
":X c #64E1FF",
">X c #75E1FF",
",X c #8D8BB7",
"<X c #A992B6",
"1X c #8C849B",
"2X c #CF81AC",
"3X c #E785B1",
"4X c #929BCD",
"5X c #88A7D7",
"6X c #95B3D8",
"7X c #83AAE6",
"8X c #8CB5E8",
"9X c #80AEF1",
"0X c #85B6F7",
"qX c #96B3F1",
"wX c #A2A5DE",
"eX c #C8A8FF",
"rX c #8AC5FC",
"tX c #97C9F9",
"yX c #88DBFD",
"uX c #99D9FA",
"iX c #97CEED",
"pX c #A2CAFB",
"aX c #A7D7FF",
"sX c #B6DAFE",
"dX c #ACCFED",
"fX c #97E6FC",
"gX c #8BF4FF",
"hX c #94F3FF",
"jX c #93FAFF",
"kX c #8EE5F7",
"lX c #A8E4EB",
"zX c #BBE3FF",
"xX c #B6ECFB",
"cX c #ADEEFD",
"vX c #A9C0D5",
"bX c #D4CFD9",
"nX c #D7D8E4",
"mX c #C5DAFD",
"MX c #D1CDEC",
"NX c #F9D9F9",
"BX c #ECCDED",
"VX c #C7EBFE",
"CX c #D6ECFC",
"ZX c #C7F2FE",
"AX c #D5F6FE",
"SX c #DEE3E9",
"DX c #E2EAFA",
"FX c #F8E9FF",
"GX c #E5FBFF",
"HX c #EBFDFF",
"JX c #E5F3FD",
"KX c #FDF4FF",
"LX c #F4FEFF",
"PX c #FEFFFF",
"IX c #F8FAFA",
/* pixels */
"h f f f f g g g g g g g c c g c c c c v v v c g g g g g c V V V v V g g j g g g g g g g g g V c c g g g g g g g g g g g f g g w ",
"g f g g g g g c c c c c g c c c c c v v v v v v v v c v m C A C C C c g g g c V V c g c c V V c c c c g v c c g g g g g g g g c ",
"g f f g c g c c c c c c c c c c c c v v v c v c v V v v v m C m ` ` C B c c c c V V V c V c V c V V v c c v c c c c c c g g c c ",
"c z f c c c c c c c c c c c c c c c c c c v v v v v v v b b ( ] n y ` C V V c c v V c c c c c B c c c c c c c c c c c c c c c f ",
"c z c c c c c c c c c c c c c c c c v c v v v v v m m z 6 ;.dXmXdX-.u c B c c c c v c c c c c c c c c g c c c c c c g c c c c v ",
"f f c c c c c c c c c c c c c c c c v c c z v v v v m 3 ] GXPXPXAXiXe._ c c c c c c c c c c c c c c c c c c c c c g g c c c c v ",
"f f g g c c g c c c c c c c c c c v z v z z z v v v x 3 6XPXPXLXVXxX8XX.n c c z c c c c c c B c c c c v c c c c c c c g g g c c ",
"g g z z z c c c c c c v c c c c c v v z z c v v v m z x SXPXPXLXdXsXpXm.Z c z z z c c c c c c c c c c n z c c c c c c c g g g V ",
"f f z z z z c c v v v v c v v v c v v v v v v c v v z ] LXPXPXPXvXzXzX5XZ c z z z c c c c c c c c c c c c c c c v c c c c c c v ",
"c c c c c c c c v c v c c v v v v c z c v v v c v v q O.PXPXPXPXMXzXzX5XC z m v v z c c c c c B c c c c c c c c v v c g c c c c ",
"c c c c c z c c v v v v v c v v c v c v v v v c v v ; +.PXPXPXPXCXsXsX5XC v m v v c z c c c c c c c c c c c c c c c c c c v c c ",
"c c c c z z c c v c v v v v v c v v v v v v m m m m 3 N FXPXPXPXGXdX6Xr.] ] ` n n n c c c c c c c c c B v v c v v v v c c c v z ",
"g c c c z z z v c v v v v v v c c v v v v z v m ` m 3 3 O.BXBXbX<X6.+.m n ` ` m m m c c c v v v v c V V c m z v C v c v c c c z ",
"c c c c c v v c c v v v v c c c m v c v v v m m M r n ....;.X.+.,X4XwXm.[ Y _ n C m m c c c v v v B V c q r A c z c c c c v c v ",
"g z c c v c c v c v v v v v c c m v c c v m n n X.n.`.0X0X{.I.}.0XaXAXzXqX-._ n n C C m v c c v v V c c r r.nXbX] t c c c v c c ",
"c z c z c c c v v c v v v v v c v v v c v z y =.`. X}./.(.].].].C.M.sXxXxXsX8X%.` C C m m v v v v v n c n DXPXPX6Xr c c v v c h ",
"z z c z c c v v v v v v v v v v v v v v z y l.'.).!.Q.Q.~.(.~.J.A.j.tXZXVXVXzX9X=.{ C C B m v v m m n : ,XPXPXPXAX' t n c m v h ",
"c z z c c v c v v v v v v v v v c v m z u e.`.!.Q.Q.Q.Q.Q.~.~.J.Y.C.M.sXVXsXsX0Xx.n. .m C v v v m m y b nXPXPXLXGX-.y ` C v h h ",
"c z z c c c c v v v v v m v c c v m b Y =.!.Q.Q.~.Q.Q.Q.Q.Q.~.J.~.~.~. XtXtXrX(.j.~.n.X.c C C m m ` : 1XIXPXPXLXHXN.T ` C v h k ",
"c z c c c c c c v v v v v v v c z z Y =.(.Q.Q.~.Q.Q.Q.Q.Q.Q.Q.~.A.~.(.].|.{.~.U.V.C.Q.M.%.c C m b ( ( nXPXPXPXLXCXuX^ T A m k k ",
"c c z c c c c v v v v v v v v z z n i.(.Q.Q.~.Y.U.U.~.Q.~.~.~.~.~.Y.Y.~.].~.Y.Y.U.C.G.Q.).X.; z b I 4XPXIXPXLXLXZXcXT.E ] N N k ",
"c c c c c c v v v v v v v v z c r ,..X(.~.~.Y.Y.Y.U.~.~.~.~.~.~.~.~.~.~.~.~.~.~.Y.Y.U.G.!.9X:.c r ( DXPXPXPXPXLXZXhX&X^ _ N N 5 ",
"c c c c c c v c c c c c c c c r ..[.(.~.~.Y.Y.Y.U.~.~.~.~.Q.~.~.~.~.~.~.~.~.~.~.Y.Y.Y.Y.J._.9X-.> { PXPXPXPXPXLXxXhX>Xy.E b N k ",
"c c c c v v c c v c v v c c c y b.[.~.Y.Y.Y.Y.Y.~.~.~.Q.~.~.~.~.~.~.~.~.~.~.~.J.Y.Y.Y.Y.A.J.}.f.U ;.PXPXPXPXPXLXxXhX%XW.~ ( D 5 ",
"c c c c c c v v c c c g c g q [ /.(.].Y.Y.Y.Y.Y.U.U.~.~.~.~.~.~.~.~.~.~.~.J.A.A.Y.R.Y.].].A.].f.> ,XPXPXPXPXPXLXlXkX%X@Xu.P N 5 ",
"c z z z c v v c v v c c c f : -.Q.Y.Y.Y.Y.Y.Y.Y.Y.U.U.Y.K.~.~.~.~.~.~.~.~.J.~.].R.R.].].].A.A.K.&.bXPXPXPXPXKXPXlX*X%X&X|.[ 5 k ",
"c z c v v v v v v c c c g g u l.h.g.V.Y.Y.Y.A.Z.Z.B.B.g.j.G.~.~.~.~./.~.C.C.A.S.A.~.(.~.~.~.J._.sXPXPXPXPXPXKXPXlX*X$X%XkXz.# 4 ",
"c z z c c c c v c c c g f q :.0X/.R.Y.Y.Y.Y.Z.Y.0XtXpX7XG.~.Q.Q.~.~./.^.G.L.0XtXqX`._.^.Q.~.~. XHXPXPXPXPXPXKXPXlX&X%X%XhX'.* ; ",
"z z c c c c v v g c c g q o.uXyX#X|.T.Y.R.Z.g.'.AXGXJXmX).Q.~.G.~.^./.}.G.h.aXAXmXpX`.'.Q.~.Z.8XPXPXPXPXPXPXPXPXlX&X%X%XhXrX* # ",
"c z c c c c v v c c c c : =.fX*X#X|.T.R.R.E.d.0XLXLXGXVXv.'.J.J.~.^.[.}.C.F.tXVXmXpX`. X~.Y.Z.8XPXPXPXPXPXPXPXPXlX+X;X%XhXtX= # ",
"c z c v c c z v v c c c > *.yX#X#X|.T.R.E.T.F.f.sXZXxXrXj.'.C.Y.~.~./.[.V.y.].rXaXtX`. X~.E.B.8XPXPXPXPXPXPXPXPXlX+X%X>XjXtX* # ",
"c c c c v v c v v v v c r Q T.W.W.W.T.R.E.R.Z.F.S.F.y.y.B.(.C.J.(.(./.{.V.d.Z.U.`. XU.|.E.Z.B.8XPXPXPXPXPXPXPXPXiX+X%X>XhXpX* ; ",
"v c c v v c v c v c c c q T g.].Z.V.T.Y.Y.R.Y.Y.Z.B.B.B.T.R.C.Y.~.~.~.[.C.d.C.Q.G.~.B.E.E.E.A.8XLXPXPXPXPXPXPXPXuX+X%X>XhXaX= ; ",
"c c c v v v c c c v v c q Q [.[.~.G.C.Y.Y.Y.Y.Y.Y.Y.R.R.R.].~.~.~.~.~.{.Y.S.~.^.A.S.R.E.E.{.J.8XLXPXPXPXPXPXPXLXuXXX$X>XhXaX- ; ",
"c c c c c c v v c v v v f ...X[./.G.C.Y.~.Y.Y.~.~.]./.(.(.(.(.^.^.(.~.(.(.^.}..X.X[..X{.].].K.7XLXPXPXPXPXPXPXPXuXXX$X;XgXaX= 3 ",
"c c c v v c v v v v c v f T H.^./.~.~.U.U.C.Q.Q.G.Q.(.^.^.^.!.v.n.v.v.v.x.H._.^.`.`._.)._.H.x.n.LXPXPXPXPXPXPXPXuXXX$X;XgXuX- 3 ",
"c c c c c v v v c v v c x i ~ ^ ^ ^ ~ ~ E Q ~ ~ ..E E E Q E E E Q E ~ ~ ~ ~ E E E E E R R / R m.PXPXPXPXPXPXPXLXfXXX$X;XgXtX- ; ",
"c c v v v c c v c v c h x Z *.e.>.>.>.=.=.*.&.&.&.&.$.$.$.&.*.*.=.>.>.p.p.>.>.*.*.*.*.*.*.*.*.5XLXPXPXPXPXPXPXLXuX&X$X;XgXpX- 3 ",
"c c c c z v c c c v c h 4 _ K.[./.^.^./.^.^.^.K.K.^.P.P._.!._.^.^.^.!.!.H.H.^.K.P.P.)._._.H.x.5XLXPXPXPXPXPXPXLXuX&X$X;XjXtX- ; ",
"c c c c c v v v v m v h 4 [ {.^.~.G.C.G.G.J.J.K.K.G.G.!.G.G.G.G.Q.G.G.G.G.G.G.G.H.H.H.H.^.H.H.5XLXPXPXPXPXPXPXLXuX+X$X;XjXiX# 3 ",
"c c c c c v c v v v v c ; [ /.^.~.~.J.G.J.~.~.J.G.G.G.G.G.G.G.G.G.G.G.G.G.Q.!.!.Q.!.Q.Q.K.J.G.7XLXPXPXPXPXPXPXLXkX=XoX;XjXiX# f ",
"c c c c c c v c v v v c ; $.C.~.~.J.A.A.J.J.J.J.J.G.G.G.G.G.G.G.G.G.Q.G.G.G.Q.Q.G.G.Q.G.J.J.~.7XLXPXPXPXPXPXPXLXfX=XoX:XjX8X# x ",
"c c c c c v v c v v m x : *.G.A.~.A.C.C.J.~.G.C.G.C.G.G.G.G.G.G.G.Q.Q.G.G.Q.Q.G.G.G.Q.C.A.Y.A.7XLXPXPXPXPXPXPXPXfXOXoX:XgX8X2 3 ",
"v v c c v v v v v v v x u *.~.Y.Y.Y.Y.J.~.~.J.G.C.C.J.J.J.J.G.G.G.G.G.Q.~.~.~.C.C.G.G.Q.C.R.Y.7XHXPXPXPXPXPXPXPXuXXX$X$XgX5X- 4 ",
"c c v v v v v c c c c v &.h.Y.~.~.Y.~.~.~.~.G.~.J.J.~.~.J.~.~.~.~.~.~.~.~.~.~.C.J.G.J.C.Y.D.R.`.HXLXPXPXPXPXPXLXfXoX:X%X>Xm.; k ",
"c c c v c v v v v v z ] H..X(.~.~.~.~.~.J.~.G.~.~.~.~.~.~.~.~.~.~.~.~.~.~.~.~.~.~.~.~.J.~.I.R. XHXLXLXPXPXPXPXHXfXXX*X*X*Xu.r A ",
"v c v v c c c v v c f ' `..X[.].].].(.(.~.~.Q.~.(.~.].].(.(.(.~.~.~.~.~.~.~.~.~.~.Q.^.^.^.].D.{.AXPXPXPXPXPXLXHXxXyX*XyX*X*.$ : ",
"c c c v v v v v c c f y e.h.x.b.x.x.x.c.b.b.b.j.j.f.b.f.f.f.b.b.x.b.G.G.j.C.C.G.c.b.v.v.v.v.x.f.qXMXNXFXFXKXKXLXFXMXdXpX8X%.2 4 ",
"c g c c v v c c c c x n U U e e e U U e Y Y Y y y t t t t y y y y y n n _ _ T T T T T T E E $.&.@.| | 2.K L 4.3.3.3.3.2.5.| D D ",
"v c c c v v v c c c c ] =.l.i.i.i.p.p.p.p.p.l.l.l.i.l.l.p.l.l.i.i.=.=.=.:.:.=.=.=.=.=.=.=.=.*.,.<.#.#.2.2.4.4.q.q.7.J J | 7 O.) ",
"c c c c v v v c c c x { n.).^.^.^.^.G.G.J.K.K.K.J.J.G.K.K.G.K.~.^.^.^.~.~.^.^.^.).P.P.H.H.H.L.L.P.qXeXNXNXKXPXPXKXNX3X8 2 7 | 7 ",
"v c c v v v v c c c z ' n.Q.C.C.C.C.C.C.C.A.C.A.C.C.C.C.C.C.C.C.G.G.G.Q.C.~.~.~.Q.G.Q.Q.G.G.A.^.^.7XmXPXPXPXPXPXPXPXNX5.2 ) O.7 ",
"c c c c c c c c c v f o.v.Q.G.U.C.C.C.C.C.C.A.C.C.C.C.C.C.C.C.G.C.G.G.Q.C.C.G.G.C.C.C.C.U.Y.A.~.^.).DXPXPXPXPXPXPXPXPXwX6 ( } 6 ",
"c c c c c c c c c v z ..c.U.C.C.C.C.C.C.C.C.C.C.C.A.C.C.C.C.C.Q.C.G.G.C.J.C.C.G.C.G.C.C.U.U.U.Y.~.Q.JXPXPXPXPXPXPXPXPXbX2 ) | } ",
"c c c v v c v c c v z ..c.U.C.C.C.C.C.C.C.C.C.C.C.C.C.C.C.C.G.Q.C.G.G.C.Q.C.U.C.C.C.G.Q.U.U.U.Y.Y.C.CXPXPXPXPXPXPXPXPXbX4 ( } ) ",
"c c c c v c v c v v b ' c.U.V.V.C.C.C.G.G.G.G.C.C.G.C.C.C.C.C.C.G.C.C.G.C.C.C.C.C.C.C.~.U.U.U.U.Y.A.CXIXIXPXPXPXPXPXPXbXd M } ] ",
"v c c c c v c c z v z _ c.U.C.U.A.C.C.c.G.H.c.G.G.C.A.C.C.C.G.C.G.C.Q.C.C.U.U.C.U.C.U.~.U.U.Q.Y.T.A.VXIXIXPXPXPXPXPXPXbX< r %.;.",
"c c c c c c c c z v z [ c.Q.U.Y.Y.J.c.z.t.t.b.M.Q.~.J.C.J.J.G.G.C.G.G.C.~.Q.Y.Y.Q.U.~.~.~.Y.Q.~.Y.D.dXPXPXPXPXPXPXPXPX<X# : X.{ ",
"c x c v c v v c v v z ' b.Q.^.[.{.h.' @ X + s -.c./.~.~.Q.~.~.Q.G.G.Q.~.~.!.^.^.^.^.^.^./.^.^.!.~.C.m.SXPXPXPXPXPXPX<X5 : > H  .",
"c x c v v v c c c z z _ =.b.x.h.k.~ + .     . d l.j.x.j.j.j.f.a.a.k.k.s.s.k.a.a.z.i.e.e.e.a.v.x.x.h.-.,XNXKXKXNXBX<X5 : P _ A  .",
"c x c c v v c c c x v r T U U R E ..s o .   . a _ e e e e u u 0 0 0 e 0 u u y u 0 $ $ $ > e ! Q ^ ^ Y I 3.9.3X3X0.3.7 P ( Z V t ",
"h x c c c c c c c x N m r 0 u y T T ] < X O < l g ; ; ; 4 s s s s s f ; f x f ; & @ + @ ; w t p W U 6 1.7.7.w.0.0.9.| ( Y i B $ ",
"x c g g c c c f f f x m z r q q 0 Z +.G @ X @ a 9 % w w w j j d d d s s v v v d < < < 1 G A A  .i > 2 K 9.0.9.8.3.3.D N n t q % ",
"h g c c v c c g c v h h v V C C B ' ] S o o X @ % % j S l l k a k l S s l A l a < < a F 1XO.+. .B w 5 F 4.q.q.q.8.2.D N m ] v 9 "
};
