/* XPM */
static char *_a546f90a2ec42fba55d05793c75a7a9[] = {
/* columns rows colors chars-per-pixel */
"64 64 256 2 ",
"   c #120F1A",
".  c #1B1A2A",
"X  c #131831",
"o  c #2C1B2F",
"O  c #1D253A",
"+  c #1D2636",
"@  c #1D232A",
"#  c #272737",
"$  c #352C3A",
"%  c #38343A",
"&  c #2C2B30",
"*  c #2F1F1A",
"=  c #4A2D2F",
"-  c #5B2D33",
";  c #081545",
":  c #1C2A46",
">  c #162C58",
",  c #292B47",
"<  c #382B45",
"1  c #2B3243",
"2  c #3B3C4B",
"3  c #373747",
"4  c #2A3757",
"5  c #3C3D5D",
"6  c #393B54",
"7  c #2E2E51",
"8  c #393D67",
"9  c #29386B",
"0  c #103370",
"q  c #443A48",
"w  c #463D58",
"e  c #473B62",
"r  c #483B78",
"t  c #5C346A",
"y  c #3C425B",
"u  c #3D4146",
"i  c #3D446B",
"p  c #394568",
"a  c #3D4C7B",
"s  c #394976",
"d  c #38547A",
"f  c #274F73",
"g  c #46434C",
"h  c #454457",
"j  c #534C52",
"k  c #56595C",
"l  c #434465",
"z  c #444966",
"x  c #43466B",
"c  c #4C466D",
"v  c #454A6D",
"b  c #4A4A6D",
"n  c #4A4A65",
"m  c #534869",
"M  c #54566E",
"N  c #424573",
"B  c #464B73",
"V  c #494D74",
"C  c #444C7A",
"Z  c #4B4D7A",
"A  c #4B4578",
"S  c #544675",
"D  c #534A75",
"F  c #54497A",
"G  c #4B5175",
"H  c #45527D",
"J  c #4C517B",
"K  c #465374",
"L  c #565477",
"P  c #4C506E",
"I  c #674F74",
"U  c #526977",
"Y  c #726870",
"T  c #715757",
"R  c #954D70",
"E  c #A6527C",
"W  c #99766C",
"Q  c #A8937C",
"!  c #3C3E81",
"~  c #5B3B85",
"^  c #3A4C85",
"/  c #385383",
"(  c #2C4D8B",
")  c #3B67AF",
"_  c #27599A",
"`  c #484B83",
"'  c #544983",
"]  c #445383",
"[  c #4C5383",
"{  c #48588A",
"}  c #555784",
"|  c #465898",
" . c #515E91",
".. c #6F508A",
"X. c #576389",
"o. c #507483",
"O. c #456698",
"+. c #566696",
"@. c #587697",
"#. c #4E7586",
"$. c #656793",
"%. c #717191",
"&. c #4C56A5",
"*. c #4A6BA5",
"=. c #4B74AA",
"-. c #5B74AA",
";. c #577AB5",
":. c #4B73B8",
">. c #687AAF",
",. c #7356A6",
"<. c #3575C7",
"1. c #497AC6",
"2. c #5174C3",
"3. c #6973C0",
"4. c #8B4D90",
"5. c #A3568A",
"6. c #8E6898",
"7. c #916DA7",
"8. c #BB7AB1",
"9. c #AF6697",
"0. c #C577A3",
"q. c #DA7191",
"w. c #B17DC4",
"e. c #778396",
"r. c #5885BC",
"t. c #6385BE",
"y. c #7384B2",
"u. c #3D82D2",
"i. c #5A87C8",
"p. c #4786D5",
"a. c #558BD6",
"s. c #4D93D7",
"d. c #5792D3",
"f. c #5490CA",
"g. c #678BCA",
"h. c #7995C8",
"j. c #6896D8",
"k. c #769ADB",
"l. c #678CCF",
"z. c #74A2DD",
"x. c #79B4DE",
"c. c #4D93E6",
"v. c #559CED",
"b. c #5C9EEB",
"n. c #5997E5",
"m. c #5C9EF2",
"M. c #5499F6",
"N. c #538FEC",
"B. c #639EEC",
"V. c #669BE7",
"C. c #699CF2",
"Z. c #5DA2ED",
"A. c #59A3ED",
"S. c #55A2F3",
"D. c #5CA3F3",
"F. c #5BA5FB",
"G. c #5DA9F9",
"H. c #50AAF5",
"J. c #63A3ED",
"K. c #6AA4EC",
"L. c #64A9EF",
"P. c #6AA9EC",
"I. c #68A3E6",
"U. c #75ABEB",
"Y. c #77A6E7",
"T. c #68B8E7",
"R. c #63A4F2",
"E. c #6BA6F2",
"W. c #64A9F2",
"Q. c #6AAAF4",
"!. c #66A9FA",
"~. c #74ADF5",
"^. c #78AEF6",
"/. c #68B4F7",
"(. c #79B6F9",
"). c #7AB5E7",
"_. c #76C5EC",
"`. c #74D5FF",
"'. c #7CD4FD",
"]. c #79D8FD",
"[. c #6CC9F9",
"{. c #908C94",
"}. c #8F91B1",
"|. c #A384B8",
" X c #B696BC",
".X c #B097A5",
"XX c #ADA9AC",
"oX c #AE958A",
"OX c #CE839E",
"+X c #D28AB1",
"@X c #EC8AA4",
"#X c #CCAFAC",
"$X c #D6D1BA",
"%X c #9094C2",
"&X c #9AA8CB",
"*X c #94ACD6",
"=X c #B6B7C7",
"-X c #A8AFCE",
";X c #87A9E2",
":X c #99B7E8",
">X c #86B8F7",
",X c #95BCF7",
"<X c #8DADE3",
"1X c #A7B6EC",
"2X c #A28BC3",
"3X c #CFBBCC",
"4X c #E29FCF",
"5X c #B5C3D3",
"6X c #88C9FB",
"7X c #95C7FC",
"8X c #89D8FE",
"9X c #96D6FD",
"0X c #92C8EB",
"qX c #ABC9E7",
"wX c #B6D5F8",
"eX c #AFC9F3",
"rX c #84E4FF",
"tX c #8BE4FF",
"yX c #8CEAFF",
"uX c #87EAFF",
"iX c #94EBFF",
"pX c #9AF1FF",
"aX c #B2E0FF",
"sX c #C4C6C9",
"dX c #D4D7DC",
"fX c #D3D0D3",
"gX c #F0D8DA",
"hX c #FBEBD9",
"jX c #C7D5E8",
"kX c #D6DAE5",
"lX c #CCD2F0",
"zX c #FAC2F3",
"xX c #E5CFF0",
"cX c #CAE9FF",
"vX c #D7ECFB",
"bX c #CBF5FF",
"nX c #D5F3FF",
"mX c #DBF4FF",
"MX c #D8FAFE",
"NX c #D9E4E9",
"BX c #E9E8E8",
"VX c #F5EAE8",
"CX c #F9F8EB",
"ZX c #E7EAF8",
"AX c #F6E6FA",
"SX c #E3F6FF",
"DX c #E4FDFF",
"FX c #ECFEFF",
"GX c #ECF2F9",
"HX c #F4F3FE",
"JX c #FEF5FF",
"KX c #F4FEFE",
"LX c #FFFFFF",
"PX c #FEFFFF",
"IX c #F8F8F4",
"UX c #E8F4EF",
/* pixels */
"b l x v v v B B B B B B v B v v B v v v B B B B B N N C C C C 8 C i C H B v v v x x v B B B B B B B B B B B B B B B B v N N x i ",
"v v x v B B B B B B B B B B B B v v B B B B B B B N B C ] s 9 a +.C H C V G v v K v B G V B B B B B B B B B B B B B B B B B B B ",
"x v v v B B B B B B B B B B B B B B B B V V V B B C C C ^ ^ +.*XqX}.J V V G B B B K B B B B B B B B V V B V B B B B B B B B B N ",
"v v v v B B B B B B B B B B B B B B V B V V B N V N C C ^ >.wXDXFXKXjXJ x J G V K B B B B B B B B V B V V B B B B B B B B B N B ",
"B v v B B B B B B B V V B B V B B B B V V V N V N V C H O.:XDXKXKXPXPX}.8 Z V V B B B B B B V V V B V B B B V V B B B B B B B V ",
"v v B V B B B B B B B B V V B V B B V B B B V N C C C s h.cXmXFXKXPXPXkXm V V V B N B B V V V V V V B B V V V B B B B B B B B B ",
"v v v B B B B B B B B B B B B V B V B V V V B N C C C a *XwX*XjXLXPXPXZXL J Z B V N B B N B B B B V V V V V B B V V B B B B B B ",
"v v v B B B B B B B B B V V V V B V V V B B V V V N a { qXnXqXjXPXPXPXHXI J Z B V N B N N B B B V B V V V V B B B B B B B B N B ",
"v v v B B V V V B V V B B V V V V V G V V B B V V N s / qXmXjXfXPXPXPXAXL } Z C N N B N B B C V B B V V V V B V V B V B B B N B ",
"v v B V V V V C C Z Z Z V V V V B V V V V V V V H C C ^ }.jXdX3XAXPXPX3XS Z C C C B B B B B V V B V V V V B V B V B V B B B B N ",
"B B B B V V C H [ Z Z V V V V Z B V V V V V V Z J [ ] { y.1X1X}.%XjXxX}.C ` { ` C C B B B B B B V B V V V V V V V V V V B B B B ",
"b B B B B B a s X.X.Z J J G V V V V V V V V Z J J } -.t.l.j.k.;Xk.h.&Xy.&.| | ` ` C C B B V B B B B B B V V B V V V V V V B B B ",
"b B B B B V 8 { -XvXy.s G J Z V Z V V V Z V Z [ >.h.z.I.B.V.C.U.U.U.,XlX1X3.&.^ ` ` C Z B V B B B V B V V V V V V V V B B B B B ",
"b v B B V N 8 *XFXLXjXD Z Z G Z V V V V Z J ] ;.V.I.J.J.R.J.K.K.~.(.9XcXSXSXcXY.^ ` H C V B V V B B V B V V V B B B V B B B N N ",
"n v B V Z a +.vXKXPXCX{.c J J G J V V J Z [ g.I.B.B.B.J.J.J.R.E.E.!.^.eXSXKXKXFXk.^ ` H Z V V V V V V V V V B B V V V V B B B B ",
"b c B Z ] ^ h.mXKXKXPXdXb V J J J J Z V ] t.K.J.J.B.J.J.J.J.J.J.R.m.m.^.DXKXKXKXcXi.| Z D V V V V V V V V V B B V V V V V B N B ",
"c c V H ^ ) ,XnXKXPXPXLX$.B J J J H B { l.P.b.J.J.J.J.J.J.J.J.J.R.R.F.!.cXKXFXDXwX(.N.| b Z V Z V V V V V B V V V V V V B B B B ",
"c S V ] ) Z.9XbXFXPXPXPX-XZ [ [ [ C { j.I.B.Z.Z.J.J.J.J.J.J.J.J.R.R.D.G.6XcXbXaX(.!.F.n. .Z J Z V B B V V V B V V V V V V B B B ",
"c D B | u.[.9XbXFXPXPXPXJX$.J ] a | j.I.b.Z.b.J.J.J.J.J.J.J.K.K.J.R.R.R.~.E.R.Z.D.D.F.!.V.+.V J V B V B B V B V V V V V B V B B ",
"D D x O.v.'.9XbXFXPXPXPXPX}.L { ) V.J.b.Z.Z.J.J.J.J.J.J.J.J.J.I.J.R.R.R.Q.R.b.v.D.D.m.D.Q.Y. .V H V V V B B B B V V V V B V V B ",
"L V i =.G.`.8XbXFXKXPXPXPX=X} O.a.R.b.b.b.J.J.J.J.J.J.J.I.J.J.J.J.J.J.R.P.L.Z.A.D.D.D.m.b.E.j.[ V V V V V B B V V V V V V V V V ",
"m V B g.[.`.6XMXFXPXPXPXPXkX{ ) n.b.b.b.Z.Z.R.J.J.J.J.J.I.J.J.J.J.J.J.J.P.J.J.R.Z.D.D.m.R.R.~.-.V V V V B V V B V V V V V V B B ",
"w b { ).`.`.6XnXFXPXPXPXPXGX+.:.n.B.b.Z.J.J.R.J.J.J.J.J.J.J.J.J.I.J.J.J.J.L.J.R.R.Z.D.Z.Z.b.Q.g.C V V V V V B V V B V V V V B B ",
"3 8 r.8X].`._.nXFXPXPXPXPXPX1Xd.J.J.Z.Z.J.J.J.J.J.J.J.J.J.J.J.J.J.J.J.E.Q.J.J.J.J.D.D.Z.b.b.K.I.{ B B B V V B V B V V V V V B V ",
"7 p x.iXrX`._.bXFXPXPXPXPXPXZXY.I.J.J.Z.Z.J.J.J.R.R.J.J.J.I.J.J.J.J.J.Z.W.Q.L.J.b.Z.R.Z.Z.Z.J.~.t.C B B V V B B V V V V V V V V ",
": f _.pXuX`.T.bXKXPXPXPXPXPXPX7XJ.R.b.J.b.J.Q.~.Q.K.J.J.J.J.J.J.J.J.J.P.(.>XU.J.D.Z.Z.Z.Z.Z.J.~.>X+.x V V V V V B V V V V V V V ",
": f 0XpXiX].T.nXKXPXPXPXPXPXPXwXI.R.Z.b.J.(.7X,X^.L.J.J.B.J.J.J.J.J.Z.W.6X7X>XZ.A.Z.Z.Z.Z.Z.Z.~.7Xh.N G V B V V V V V V V V N N ",
"O f 9XpXiX`.T.nXKXPXPXPXPXPXPXcXU.Z.Z.A.D.(.7X7XU.J.R.J.J.Z.Z.J.J.J.v.J.6X7X>XL.A.R.J.Z.Z.A.Z.~.,X;XH B B B B V B B V B V B B V ",
": d 8XiXyX`.T.nXKXPXPXPXPXPXPXmXU.Z.A.b.A.D.(.6X(.J.J.J.Z.Z.J.J.J.J.b.b.(.7X(.A.A.R.Z.Z.Z.Z.Z.Q.>X:XC J B N B B B B V V B B B B ",
"O K 8XiXyX`.T.nXKXPXPXPXPXPXPXmXU.J.A.v.v.S.W.~.^.W.Z.J.W.R.R.R.R.R.R.D.~.(.Q.A.Z.R.Z.Z.Z.D.Z.W.(.;Xa x N B B B B B V V V V B B ",
"+ U 8XiXrX`.T.nXKXPXPXPXPXPXPXSXU.J.D.v.v.D.R.P.E.Q.W.W.W.W.W.R.R.R.R.R.!.Q.R.J.Z.R.Z.Z.D.D.R.W.(.Y.s B B V V B B B V V V B B V ",
"+ o.8XyXrX`.T.nXKXPXPXPXPXPXPXSXU.D.D.S.D.D.Z.Z.R.W.W.W.W.W.W.W.W.R.!.!.R.R.W.R.J.Z.Z.Z.Z.W.W.Q.>Xk.a C V V V B V V V V B V B V ",
"+ o.8XyXrX`.T.nXKXPXPXPXPXPXPXFXz.b.m.S.R.R.R.!.R.J.J.R.J.J.K.J.K.E.R.R.R.!.W.D.Z.Z.J.Z.Z.L.P.~.>Xl.a B G V V B V V V V V V B V ",
"+ o.8XyXrX`.[.nXKXPXPXPXPXPXPXFXj.n.c.c.c.c.c.n.n.b.b.Z.R.Q.Q.U.~.~.~.K.K.J.J.D.Z.L.Z.L.J.K.U.>X>Xg.] B V V V V G J V V V V V V ",
"+ o.'.yXrX`.[.nXKXPXPXPXPXPXPXKXd.p.u.<.<.<.p.p.a.a.a.d.i.;.=.*.O.O.{ ] d d / O.*.;.r.t.i.r.i.i.g.-.[ [ J V V V V V V B V V V Z ",
"# U '.uXrX`._.mXKXPXPXPXPXPXPXFXi.p.p.p.p.u.p.p.1.:.:.*.d 4 7 , , # # 3 3 7 < , 7 4 y 4 p p f s a C H [ V V V V V V V V V V V V ",
"& U ].uXrX`._.nXKXPXPXPXPXPXPXFXj.c.v.b.b.b.j.l.l.k.=.> . & & & # 3 g q 3 $ = q 2 h 2 h z b K B C x x N V Z G V V V V V V V B B ",
"# U '.yXrX`._.MXKXPXPXPXPXPXPXFXY.A.D.D.!.E.Y.k.k._ 7 - W Q oXQ k $ & % = w g q 2 3 % % q m M L U L L N N B Z Z Z V V G V V B B ",
"# o.'.tXyX'._.MXKXPXPXPXPXPXPXFXY.b.v.F.F.E.>Xa.s 3 .XhXCXIXIXLXIX3XU   = q h q $ & $ T .XkXZXHXHXHXGX-X{ N c C Z J V V V V B V ",
"@ #.8XtXyX'.T.MXKXPXPXPXPXPXPXKXY.n.v.F.!.^.l./ U $XPXPXPXPXPXPXPXPXUXI * & w q = # T IXPXPXPXPXPXPXPXPXNX} 8 C Z Z C V V V V V ",
"% o.'.tXtX`.T.DXPXPXPXPXPXPXPXFXY.A.F.!.Q.^.*.X.fXPXPXPXPXPXPXPXPXPXIXfXk   q 3 q Y #XLXPXPXPXPXPXPXPXPXPXsXZ a Z Z V V V B V v ",
"h @._.tXrX`.T.DXPXPXPXPXPXPXPXSXY.v.G.G.(.U.] XXPXPXPXPXPXPXPXKXGXsXXXhX$X2 & % e.dX=X.XBXPXPXPXPXPXPXPXPXPX=XN B Z V V V V V v ",
"2 @./.8X8X`.T.DXKXPXPXPXPXPXPXDXK.D.!.R.(.g.e.PXPXPXPXPXPXPXPXZXY # % fXVX{.g $ sXPX{.O h {.HXPXPXPXPXPXPXPXPX6.i V B B B V B v ",
"2 #./.9X8X[.(.MXKXPXPXPXPXPXPXmXE.S.D.W.~.>.BXPXPXPXPXPXPXPXPXsX1 # . XXBXsXj q dXIX{.# # 2 dXPXKXPXPXPXPXPXPX5X8 B B B v V b b ",
"6 U f.9XtX6X9XMXPXPXPXPXKXPXPXcXV.Z.M./.a.}.CXPXPXPXPXPXPXPXPXdX3 #   Y VXNX2 g gXPX}.O # h kXPXPXPXPXPXPXPXPXkX8 N B V V B b V ",
"e m e.qXcX,XwXbXKXPXPXPXPXJXxX>Xc.v.M.c.1.&XCXPXPXPXPXPXPXPXPXGXM , . W KXMX3 g VXPX=X+ X m UXPXPXPXPXPXPXKXKXNX5 x V V V B b b ",
"t 4.6.{. X|.7.7.|.|. X X X|.g.N.N.c.N.M.1.-XCXPXPXPXPXPXPXPXPXPX%.l < {.UXFXh j BXPXkX1 O %.UXIXPXPXPXPXPXKXKXNXw v B N V V b b ",
"..4.5.E R R 5.0.+X+X Xw.,.&.1.a.m.B.N.m.p.%XVXLXPXPXPXPXPXPXPXPXjX%.}.dXFXPXg k VXPXJX%.s jXKXIXPXPXPXPXPXPXKXkX5 M Z v V V V b ",
"....4.E R +XgXJXJXJXJXAXzX*XY.V.n.B.V.C.a.>.gXPXPXPXPXPXPXPXPXPXPXPXPXPXKXFX  q IXPXPXZXkXKXPXJXPXPXPXPXPXKXKX=X5 G G b c V b b ",
"%...I I 2XPXPXPXPXPXPXPXIXAX1XY.C.V.V.B.B.y..XPXPXPXPXPXPXPXPXPXPXPXPXPXPXXX  q dXPXPXPXPXPXPXPXPXPXPXKXIXKXGX%.x V V b b V V b ",
"$.$.C ] wXPXPXPXPXPXPXPXPXHX:XK.K.K.J.V.E.I.%.#XPXPXPXPXPXPXPXPXPXPXPXPXkXg & $ Y UXPXPXPXPXPXPXPXPXJXIXKXKX-XN v V V b b V b b ",
"$.+.s [ ZXPXPXPXPXPXPXPXPXFX<XV.K.J.J.J.R.R.K.X.Y 3XVXVXVXhXVXVXZXZXkX}.o & $ . # M =XfXNXZXHXZXBXBXBXGXFX5XG B B V B V B b b b ",
"+.+.^ +.ZXPXPXPXPXPXPXPXPXSX;XI.J.R.J.D.D.m.D.c._ ; o = - - = & # .   X # % % # 1 + @ . $ , 4 9 / y.qXlX&Xs i A B V V V B b b b ",
"[ { ] +.ZXPXPXPXPXPXPXPXPXSXY.Z.D.D.D.A.D.S.m.S.M._ 0 : .   @ @ + + # # $ 3 u 3 1 1 & # + X ; ; 0 1.^.2.9 N V B V B b v B b v b ",
"H [ a { lXPXPXPXPXPXPXPXPXvXB.S.S.S.S.D.S.S.S.F.F.F.s.( > X   # & # $ $ % 3 3 3 3 2 g 3 , 7 s *.z.,X;.9 8 Z v v B B v V v B v b ",
"H [ ] ^ &XPXPXPXPXPXPXPXPXwXv.S.S.D.D.D.D.S.D.G.D.!./.I.;.@.M j j w 2 6 3 3 2 2 2 6 2 3 P >.<X0XeX:XX.i B x v v b v v v V b b b ",
"C Z ] ] >.jXPXKXJXJXJXJXJX0Xc.F.S.A.Z.J.J.R.D.D.J.W././.U.>X*X%.n h h 2 2 3 3 3 6 y 3 6 +.*X:X:X*X@.8 l l x v v v v v v V v v v ",
"A S A [ N I OXzXzXzXzXxX1Xj.f.f.s.s.d.d.d.d.a.s.s.s.s.p.p.i.t.+.s 5 5 5 h h 6 y 5 5 6 y +.-.>.-.H 5 5 l z l l v v v v v v v v v ",
"S S F Z i I E q.@X@X9...! ^ d s p 8 8 p a H H / / ( ( ( f s s i i N B N N v v z l l b G B s s p 6 w l l l l v v v v v x v v v v ",
"S S F ' ' ..0.@XOX0.8.7.' [ N c m e w h m m m S D A Z Z C B B x x i B B K x x v v v V B N s i l l 5 p l l v v v v v v v v v v b ",
"S S F ` A F 7.8.+X8.w.7.' Z N c n l l n b b c b b c c V c n n x v x i i i p i x v x v x x N x i p y p l v z v v x v v x v v v b ",
"S F A A ` ' ..7.6.6.6.4...[ ] G b x b b V V V b b b b v b v x v x x x x x x v v v x x x x v x x l l z z z v v v v v v v v v v b ",
"S D A r r A ' } F F ' ~ ~ ` C B V b b b b G V b c n x x v v x v x x x x v x x B x x x x x x x x z z z z v v v v v b v v v v b b ",
"L } F F ' F 8 5 8 e r ' r r r C V b v b z n M b m c l l n b b V V V V V V V G V v b b b z l z z n n n z b v v v b b v b v v z n "
};
