/* XPM */
static char *_4b149459f2c43adbd90d921fb2d05f8[] = {
/* columns rows colors chars-per-pixel */
"64 64 256 2 ",
"   c #130718",
".  c #0B0A16",
"X  c #181629",
"o  c #171D34",
"O  c #27192D",
"+  c #182638",
"@  c #1A222E",
"#  c #27222B",
"$  c #262A3A",
"%  c #3A2837",
"&  c #3A3139",
"*  c #27323C",
"=  c #511C3D",
"-  c #462739",
";  c #582A3B",
":  c #552E38",
">  c #692C3C",
",  c #4B453F",
"<  c #1A1D42",
"1  c #14294C",
"2  c #282646",
"3  c #372945",
"4  c #2B364A",
"5  c #3A3447",
"6  c #382E55",
"7  c #2C3859",
"8  c #363757",
"9  c #2D2C58",
"0  c #17386F",
"q  c #2B3B66",
"w  c #353C67",
"e  c #2F3D74",
"r  c #462A47",
"t  c #453549",
"y  c #483856",
"u  c #55344F",
"i  c #6C314D",
"p  c #453A69",
"a  c #543C6C",
"s  c #6C3469",
"d  c #36425C",
"f  c #394568",
"g  c #3A536B",
"h  c #3D4974",
"j  c #3D4A7B",
"k  c #394676",
"l  c #334C74",
"z  c #32617D",
"x  c #4D4556",
"c  c #694954",
"v  c #454A6D",
"b  c #4A4C6D",
"n  c #464668",
"m  c #554868",
"M  c #4A526B",
"N  c #585469",
"B  c #434373",
"V  c #4A4576",
"C  c #464C73",
"Z  c #494D74",
"A  c #454C7A",
"S  c #4A4D7A",
"D  c #46467B",
"F  c #514B74",
"G  c #524D7A",
"H  c #574877",
"J  c #4A5075",
"K  c #45517C",
"L  c #4C527B",
"P  c #475075",
"I  c #555378",
"U  c #645565",
"Y  c #6E4E74",
"T  c #596979",
"R  c #4C6C7B",
"E  c #6E6B75",
"W  c #8F3A63",
"Q  c #893E46",
"!  c #B15572",
"~  c #9A5A67",
"^  c #2D498E",
"/  c #2B5585",
"(  c #3A5387",
")  c #384F8B",
"_  c #315AAB",
"`  c #316EB7",
"'  c #245693",
"]  c #454D83",
"[  c #4A4B85",
"{  c #574D84",
"}  c #445283",
"|  c #4D5383",
" . c #495788",
".. c #535787",
"X. c #495997",
"o. c #505293",
"O. c #65568A",
"+. c #6F528B",
"@. c #5C7583",
"#. c #4A6498",
"$. c #556597",
"%. c #4B719D",
"&. c #70718B",
"*. c #4759A5",
"=. c #476AA6",
"-. c #5469A5",
";. c #5B74A9",
":. c #5979B7",
">. c #4B6EB6",
",. c #677BB7",
"<. c #7170AD",
"1. c #3375C9",
"2. c #5378C7",
"3. c #4E7BD6",
"4. c #636DC6",
"5. c #8F568D",
"6. c #B45D91",
"7. c #8E7290",
"8. c #AC678F",
"9. c #9071AE",
"0. c #A878AD",
"q. c #9F59AD",
"w. c #CE72AF",
"e. c #C35C98",
"r. c #A277C9",
"t. c #5282B7",
"y. c #6784BE",
"u. c #7584AF",
"i. c #7DA5B9",
"p. c #3986D3",
"a. c #3B9CFB",
"s. c #328DE9",
"d. c #37A6FE",
"f. c #30AAFF",
"g. c #1C8BED",
"h. c #5388CA",
"j. c #4A89DA",
"k. c #568CD6",
"l. c #4A94D8",
"z. c #5794DA",
"x. c #508CC9",
"c. c #6589C7",
"v. c #658CD5",
"b. c #6796D9",
"n. c #7694D7",
"m. c #6E95CA",
"M. c #70A9DB",
"N. c #4788E5",
"B. c #4C93E5",
"V. c #4A96E9",
"C. c #5C9BE5",
"Z. c #549BEB",
"A. c #5B9DEB",
"S. c #5598E4",
"D. c #499CF8",
"F. c #589BF7",
"G. c #558CEA",
"H. c #639DE4",
"J. c #629EEA",
"K. c #6A9BE6",
"L. c #7499E4",
"P. c #659EF4",
"I. c #5DA3ED",
"U. c #59A5EC",
"Y. c #49A3FB",
"T. c #5DA3F2",
"R. c #53A3FD",
"E. c #58A7F7",
"W. c #5CB4FF",
"Q. c #4FA1E9",
"!. c #65A3E6",
"~. c #63A3EC",
"^. c #6AA4EB",
"/. c #64A9ED",
"(. c #6CA4E7",
"). c #74A7E8",
"_. c #77B4EA",
"`. c #63A4F2",
"'. c #6AA5F3",
"]. c #63AAF3",
"[. c #69A9F9",
"{. c #73A9F7",
"}. c #69B7F4",
"|. c #79B8F9",
" X c #67BAEC",
".X c #6AC8F6",
"XX c #6AD3FF",
"oX c #67D6FF",
"OX c #78D5FE",
"+X c #71C9F4",
"@X c #7CE3FF",
"#X c #7EE8FF",
"$X c #908B8F",
"%X c #8F8DB1",
"&X c #AD92B2",
"*X c #B0A7B0",
"=X c #A19E9E",
"-X c #CE8EB0",
";X c #C9B8AF",
":X c #F7B5AF",
">X c #ED8F96",
",X c #B5C1BD",
"<X c #DFCBBD",
"1X c #8B91CE",
"2X c #B694CA",
"3X c #94ADD4",
"4X c #ACB0CF",
"5X c #88BAFC",
"6X c #93B5EA",
"7X c #A8BBE9",
"8X c #D0B7D3",
"9X c #F6B2C5",
"0X c #CCB5EF",
"qX c #C69FC5",
"wX c #86C9FC",
"eX c #97CAFB",
"rX c #87D8FE",
"tX c #96D6FF",
"yX c #99C3EE",
"uX c #A5DAFF",
"iX c #BAD7FB",
"pX c #B1C8EF",
"aX c #84E5FF",
"sX c #8AEBFF",
"dX c #95E4FF",
"fX c #B1E6FD",
"gX c #CCCED4",
"hX c #FFC8DC",
"jX c #F5D4CB",
"kX c #F7E8DB",
"lX c #ECE8DA",
"zX c #DADBE8",
"xX c #C7DBFD",
"cX c #CFD1F6",
"vX c #E5DEE6",
"bX c #FCD9FF",
"nX c #F1DAEF",
"mX c #C9E9FE",
"MX c #C9FCFF",
"NX c #D3F3FF",
"BX c #DDF5FF",
"VX c #D5FCFF",
"CX c #DDFCFF",
"ZX c #D7EAF3",
"AX c #E8E9E8",
"SX c #FFF6EB",
"DX c #E6E9F5",
"FX c #FAECF9",
"GX c #EBFEFF",
"HX c #E6F9FE",
"JX c #FDFEF5",
"KX c #FDF5FD",
"LX c #F4FEFE",
"PX c #FFFFFF",
"IX c #F7F4F9",
"UX c #F1ECE7",
/* pixels */
"b n n n v v v C C C v v v C C C C C Z Z Z C C v v b v b b Z C Z Z Z v v v v v v Z v Z J C C C C C C C C C C C C C C v v v B v f ",
"v v n v C C C C C C C C v C C C C C C Z Z Z Z Z Z Z Z Z Z Z L L L Z C C C C C Z Z C J J Z Z C Z C C C C C C C C C C C C v C C C ",
"n v v v C C C C C C C C C C C C C C Z C Z Z C C Z Z Z Z Z C ] | ..S L L J J J Z J Z Z Z C C C C Z C Z Z C Z C C C C C C C Z C B ",
"v v v v C C C C C C C C C C C C C C Z C Z C Z Z C Z C C S h k | $.D C L L L J C C Z P C Z C C C C C C C Z C C C C C C C C C C B ",
"v v v C C C C C C C C C C C C Z C C C C Z C Z Z J P S A j ( ;.3XpX4X .f C Z C C C C C C C C C C C C C C C C C C C C C C C C C C ",
"v v v C C C C C C C Z C C C C Z C C Z C C Z Z C C C S h k m.NXPXLXJXZX..w C C C C C C C C C Z C C C C C C C C C C C C C C C C C ",
"v v v v C C C C C C C Z C C C C C Z Z Z Z Z C C C P K K -.yXGXHXJXPXJX&XB C Z C C C C C C C C C C C C Z C C C C C Z C C C C C C ",
"v v v v C C C C A S S S J C C C C J J Z C C Z C P P K } 1XiXxX3XLXPXPXDXI Z S C C S C S C C C C C C C Z C C C C C C C C C C C C ",
"n n v v C C A L S D } K C C Z C Z J J Z Z Z Z Z C C K  .7XiX7XpXPXPXPXIXI L S C C C C C C C C C C Z Z C C C C C C C Z C C C C C ",
"v n v C C C h k } D k A C Z J Z C J Z Z Z S Z Z J P C } pXxXiXzXPXPXPXIXI S L C C C C C C C C C C Z C Z C C C C C C C C C C C C ",
"v n v v C C k ..4XgX&.k C L Z Z Z Z Z Z Z Z Z Z J L K K 1XxXNXzXPXPXPXDXI I S A A C C C C C Z Z Z C C C J Z C C C C C C C C C C ",
"n v C C C h e 7XPXJXZXG V L Z S Z Z Z Z Z Z S L L L L K ;.pXHX8XKXPXPX4XG ..| ] A A C C C C Z Z Z C J Z Z C C C C C C C C C C C ",
"v v Z S A ( #.VXPXPXJX%XV L L S Z Z Z Z Z Z S L | | ..X.-.m.7X%X9.hX:X&.]  .| [ ] A A C A C Z Z C Z C Z C Z C C C C C C C C C C ",
"n C Z } ( ^ m.GXLXJXJXgXV Z S Z Z Z Z Z Z S S |  .X.;.c.v.v.L.L.m.*X8X9.) X.X. .] A A A A S C Z C C Z Z C C C C C C C C C C C C ",
"n v Z } ^ ` 6XCXLXLXPXJXO.Z Z S S S Z Z L L |  .$.c.L.).{.{.{.{.5XuXcX1X,.>.*.[ [ ] ] A A S C C Z Z C C Z Z C C C Z C C C C C C ",
"v b S  ._ C.eXVXGXPXPXPXgXG Z L S S L L L | } ;.n.).).'.'.[.[.[.[.5XeXiXHXZXxX3XX.] ] ] S S C C Z C Z C C Z Z C Z Z C C C C C C ",
"n Z S  .p.|.uXVXGXPXPXPXPX%XB L S S L L L  .y.).).(.^.^.^.`.`.'.`.[.F.iXKXIXPXHX6XX. .] K S Z C C C Z Z Z C Z Z Z Z Z Z C C C C ",
"n L C #.Z.OXuXVXGXPXPXPXPXgXG B [ [ L L X.c.).K.(.H.!.!.^.^.'.`.`.E.B.uXPXPXLXGXxX>.^ | L L S C C C Z Z C C C C Z Z Z Z C C C C ",
"V L f %.W.OXfXVXGXPXPXPXPXzXS D ] S  .:.b.!.H.H.J.!.!.!.^.^.'.^.`.].Z.eXLXPXLXGXiX).2.$.L L S A C C Z C Z Z Z C Z Z Z C C C C Z ",
"b L f t.XXXXuXNXGXLXPXPXPXDXV w e ) 2.S.C.C.C.J.J.~.!.!.~.^.^.^.~.T.T.].eXiXiXyX_.'.^.v.$.S S S C C C C C C Z C Z Z Z C Z Z C V ",
"n n j M.oXXXtXVXGXPXPXPXPXLXD q ) c.H.C.C.J.~.J.~.~.~.!.~.!.^.^.~.T.`.T.]./.I.I.A.~.^.`.b.;.C C C C C C C C C J Z Z Z Z C Z C Z ",
"6 f :.wXoXoX+XVXLXPXPXPXPXPX<.=.(.{.J.J.~.~.J.~.~.~.^.~.~.!.~.!.^.~.`.`.T.E.T.I.I.A.A.P.`.{.,.C L C C Z Z J Z Z Z Z L Z Z C C Z ",
"4 g _.dX#XoX+XCXLXPXPXPXPXPXKX6X).^.J.~.~.~.~.~.^.^.~.!.~.!.^.^.!.^.`.`.`.T.T.~.I.T.T.T.`.`.{.;.C L K Z C J Z Z C Z S Z Z C C Z ",
"2 ( eXdXaXXX XBXLXPXPXPXPXPXPXiX(.^.~.A.~.`.`.`.^.^.~.~.~.!.^.^.~.^.^.^.`.~.~.`.`.T.T.T.T.P.'.'.X.A K S S C Z Z C Z Z Z Z C C Z ",
"2 #.dXsX#XoX XBXLXPXPXPXPXPXPXxX(.`.`.I.T.`.`.~.~.^.~.~.!.!.~.^.^.^.!.~.~.~.T.`.`.T.T.`.`.`.`.[.k.X.A S S C C C S C J L C C C Z ",
"+ z rXsX#XXX XNXLXPXPXPXPXPXPXmX^.`.T.T.T.T.`.`.`.~.^.~.~.~.~.~.~.^.^.~.~.~.`.T.T.T.T.T.`.`.].'.^.=.j C S S C C Z Z C Z Z C C C ",
"+ R rXsXaXXX XNXLXPXPXPXPXPXPXmXH.`.~.T.T.`.].].^.^.~.~.~.~.I.I.~.^.^.^.~.`.`.I.T.T.T.`.`.`.].`.'.v.j h C C C C C J Z C Z Z C C ",
"+ @.rXaXaXOX XNXLXPXPXPXPXPXPXNXH.`.A.T.T.{.|.|.'.^.~.~.^.~.I.I.~.~.~./.|.|.{.U.T.I.~.`.`.`.].`.{.eXm.K A C C C C Z Z Z J C Z Z ",
"$ T rXaXaXOX XNXLXPXPXPXPXPXPXNX(.~.U.A.T.|.wXeX|.`.I.~.`.].~.~.~.~.I.[.tXeX|.U.T.I.I.~.`.`.T.].wXMXNX%Xj L J J Z Z C J Z C Z Z ",
"$ @.rXsXaXOX XNXLXPXPXPXPXPXPXBX(.I.T.U.T.|.wX5X5X].U.I.~.^.~.~.~.~.T.'.tXuX|.U.].I.I.~.~.~.I.T.tXMXBX4XD L L Z Z Z Z Z C Z C Z ",
"+ @.rXaX@XXX.XNXLXPXPXPXPXPXPXBX(.~.U.T.T.`.}.|.|.].T.^.I.I.].I.~.I.T.`.|.rX|.E.].I.I.I.~.~.I.U.wXfXHXyXk G L Z Z Z J Z Z Z Z Z ",
"+ @.rXaX@XXX.XNXLXPXPXPXPXPXPXBXM.~.T.T.T.I.I.}.}.].U.I.I.].~.~.~.`.I.T.}.+X}.I.].I.I.I.].I.T.].]._.wXz.k S L Z Z J Z Z Z Z Z V ",
"$ @.rXaX@XXX.XNXLXPXPXPXPXPXPXBXM.~.T.T.U.~.]././.].I.I.I./.~./.~.~.~.~.].].].].I.I.I.I.I.U.T.^.`.Z.l.z.$.G Z Z Z S Z Z Z Z Z Z ",
"$ @.rXaX@XXX.XVXLXPXPXPXPXPXPXBXb.^.U.T.I.I./.~.~.~.I.I.I.^.~.I.~.`.`.C.U.U.I.I.I.I.U.U.U.I.A.I.U.Z.Z.!.c...Z Z Z Z Z Z Z Z Z Z ",
"$ @.rXaX#XoX.XCXLXPXPXPXPXPXPXCXb.I.A.A.U.A.I.~.!.~.I.~.I.~.~.I.`.].].`.].I.U.U.U.U.U.A.I.C.A.S.Z.Z.Z.^.n.$.C Z Z Z Z Z Z Z Z S ",
"4 T rXaX#XoX.XCXLXPXPXPXPXPXPXCXk.Z.Z.Z.S.S.z.H.H.H.H.!.(.'.{.^.~.H.H.^.'.!./.~.I.I.U.C.C.S.Z.S.S.Z.S.F.K.;.S Z Z Z Z Z Z Z Z Z ",
"* R OXaX#XXX+XVXLXPXPXPXPXPXPXCXh.B.V.B.B.z.b.b.b.b.m.c.t.:.:.-.#.#.#.$.:.c.v.b.K.K.H.S.z.z.z.S.V.Z.Z.F.`.:.A Z Z Z Z Z Z Z b Z ",
"5 T rXaX@XoX.XMXLXPXPXPXPXPXPXCXk.s.B.B.z.z.h.>.=.#.} k 9 < < 2 2 3 t 3 5 8 h ( X.X.*.>.k.z.j.j.B.V.Z.F.E.2.A C v Z b Z Z Z Z Z ",
"t T wXaX@XXX+XMXPXPXPXPXPXPXPXCXj.s.B.C.v.,.o.{ C p y u y r 3 r % - - - - % % - r r y p o.2.Z.V.s.V.V.D.R.k.[ Z Z b Z Z b b b b ",
"5 T wXrXOXXX.XMXLXPXPXPXPXPXPXVXl.s.Z.b.y.O.s s u r - ; = i i u r t % - - - : : ; > i i s +.v.F.s.a.D.Y.R.C.o.B J Z Z Z Z b b b ",
"3 N _.tXOXOX.XMXLXPXPXPXPXPXPXVXl.s.E.v.O.s s i Q Q ~ ! ! W = - ; - x N y : : : > ~ ! ! ! W +.1Xb.Y.Y.R.R.Z.-.B b b b Z Z b b b ",
"4 M m.tXrXOXOXVXGXPXPXPXPXPXPXfXC.N.p.^ s ! >X:XjXSXJXPXPXkX;XE - % y 6 r u ~ -X9XhXhXhXhX:X>X9X0X'.R.R.R.Z.>.V b Z b Z Z Z b b ",
"d f y.eXuXrXrXCXPXPXPXPXPXPXLXeXB.1.' +.9XJXPXPXPXLXLXGXHXDXvXUX$X3 2 % - =XGXPXPXPXPXLXPXPXPXPXKXxX[.R.Y.R.2.D b C Z Z b b C Z ",
"l l <.7XiXpXxXHXPXPXPXPXPXPXiX`.N.1.,.SXJXPXPXPXPXPXPXPX*XU *XSXjXx X # 7.zXgX$X7.vXPXPXPXPXPXPXPXPXuX].D.D.3.[ v C Z Z Z b C Z ",
" .$.<.1X0X2X2X2XqX-X-X&X0.1X).A.3.n.FXPXPXPXPXPXPXPXPXPXt   U kXUXE @ x zXAX=XX X $XPXPXPXPXPXPXPXPXIX6XP.R.G.o.m Z Z Z Z Z Z Z ",
"$.{ &.9.8.6.! 8.8.8.8.0.q.4.G.G.v.7XPXPXPXPXPXPXPXPXPXUX% O O <XlX$X$ E PXgXT o O &.PXPXPXPXPXPXPXPXKXcXT.Y.F.X.m F Z Z Z Z Z Z ",
"<.+.+.Y W e.9XnXFXKXKXFXbX0XG.3.2.pXPXPXPXPXPXPXPXPXPXAX3 O   =XlX,X+ E PXgXN + o O.KXPXPXPXPXPXPXPXPXmXV.a.R.*.m V b Z Z Z b Z ",
"+.5.Y a 9.KXPXPXPXPXPXPXJXbXF.3.2.pXPXPXPXPXPXPXPXPXPXHX3 X   $XSXgX+ E PXgXT o < O.PXPXPXPXPXPXPXPXPXmXl.s.D._ m V Z Z b b b Z ",
"+.5.Y H cXPXPXPXPXPXPXPXPXIXF.N.2.7XPXPXPXPXPXPXPXPXPXIX6 X $ ;XkXlXo &.PXzX%X1 1 <.LXPXPXPXPXPXPXPXPXmXl.g.a.>.m F b Z Z b b b ",
"{ +.a +.IXPXPXPXPXPXPXPXPXGXP.N.2.3XPXPXPXPXPXPXPXPXPXLX<.6 $XJXAXUXO E PXUXAX&.u.vXPXPXPXPXPXPXPXPXPXZXj.g.a.:.m b V Z Z Z Z Z ",
"G H H 7.HXPXPXPXPXPXPXPXPXGX[.D.3.1XLXPXPXPXPXPXPXPXPXPXvXvXPXPXJXvXX U PXDXKXIXPXPXPXPXPXPXPXPXPXPXPXxXN.s.D.,.S Z Z Z Z Z Z Z ",
"..V D +.IXPXPXPXPXPXPXPXPXHX_.R.G.:.gXPXPXPXPXPXPXPXPXPXPXPXPXPXPX*X  5 KXPXPXPXPXPXPXPXPXPXPXPXPXPXJX6XD.a.F.,.K C Z Z Z Z C S ",
"| A k H DXPXPXPXPXPXPXPXPXHX_.E.W.h.$.vXPXPXPXPXPXPXPXPXPXPXPXPX;X, X . &.PXPXPXPXPXPXPXPXPXPXPXPXPXDXx.a.Y.P.,.K P Z Z Z Z Z Z ",
"S A ] B *XPXPXPXPXPXPXPXPXmX_.E.W.U.=.L *XkXSXSXSXSXKXKXPXPXzX$X& & X . X x *XlXKXFXSXFXPXPXKXPXKXDXx.s.d.R.(.,.j J Z C Z Z Z C ",
"B D A S H gXPXPXPXPXPXPXLXM.U.R.W.W.U.` 0 8 c c i c x x r %   X $ & # # #   .   O % u c Y 7.2XcX7XV.g.f.d.R./.:.A J Z Z Z Z Z Z ",
"V V V S p ~ bXKXPXPXIXDXi.` Y.R.E.E.T.B.` ^ 1 + X X X X X X $ & & & & t - % & % % % 2 1 ' x.!.].V.a.d.f.d.Y./.:.C Z Z Z Z Z Z J ",
"B V S p S Y 6.w.-X-X0.%Xy.l.Y.Y.T.Q.Q.V.D.V.1./ 0 1 o @ $ $ $ 5 5 t 5 t y y t & % % k j.F.D.Y.d.f.f.d.f.d.T.!.,.A C Z Z b Z Z J ",
"B S G S B m ! 6.e.e.q.9.L.E.Y.Y.U.Q.Q.Q.U.].}.U.l.>.#.g 4 * * 4 4 4 4 2 9 8 t 5 8 f v.{.`.Y.Y.d.f.d.d.d.R.^.).u.h C Z b b b Z Z ",
"V V { [ [ Y 8.w.6.6.w.r.1XL.H.S.S.S.B.S.U.Z.Z.T.A.C.z.t.R g d 4 4 4 7 4 7 8 5 d =.2.k.B.V.D.Y.a.D.D.D.F.J.n.n.-.h C Z v b b b b ",
"S G G [ { O.Y ~ 5.8.0.9.<.<.,.2.h.x.x.x.x.x.h.t.:.:.;.%.#. .h g M g g n n v n ( =.=.>.` 1.j.N.N.j.j.h.:.-.-...| C b v b b b b M ",
"F F V S S S G G G V p V S [ [ } ) ) / l f q 7 q f f f f n w f w q q f f w w q q q 0 0 0 e l / / / ) k p p V S J Z v b b b b M b ",
"F F S V C A D j D j D ] [ [ | } A S v y y y 8 8 4 4 7 6 8 8 7 q q q q w w w w w w 7 4 6 6 8 8 f f C C Z Z b Z Z v Z v v v b b b ",
"F F G V C A j j j k k k e D V v m U s y 5 t t y y d d d w n f f h h h h h h C f n n y y y u u m m b F F F Z v v v v n v v v v M ",
"I I F G J S K C A j k h w V F n N E c t t t y x N N M N M v J Z L L C L L J J b m N U U c c c U U N N N m b v b v v v b M b n M "
};
