/* XPM */
static char *baaedc26c0fc4c829a6dace4a1797c30[] = {
/* columns rows colors chars-per-pixel */
"64 64 256 2 ",
"   c #1F262B",
".  c #2B2B2D",
"X  c #2C2C34",
"o  c #2D2C3B",
"O  c #2A2633",
"+  c #322D36",
"@  c #322D3B",
"#  c #382C35",
"$  c #2D3137",
"%  c #34333B",
"&  c #363437",
"*  c #302E2D",
"=  c #1F1D31",
"-  c #2C2D41",
";  c #372E43",
":  c #33344D",
">  c #383646",
",  c #363855",
"<  c #2D3251",
"1  c #3B3D65",
"2  c #3D3F72",
"3  c #413C4C",
"4  c #463D6A",
"5  c #443E73",
"6  c #4A3E75",
"7  c #543B6B",
"8  c #39435B",
"9  c #3C4364",
"0  c #3D446C",
"q  c #3D4B6D",
"w  c #364765",
"e  c #3D4573",
"r  c #3D4A73",
"t  c #3D457A",
"y  c #3D4B7A",
"u  c #364A72",
"i  c #3B5678",
"p  c #3F6379",
"a  c #555458",
"s  c #494B57",
"d  c #63635E",
"f  c #424265",
"g  c #43446D",
"h  c #4A436D",
"j  c #43496E",
"k  c #4A486B",
"l  c #5C5B64",
"z  c #444674",
"x  c #4A4574",
"c  c #444974",
"v  c #4A4973",
"b  c #44457A",
"n  c #4A457A",
"m  c #444A7A",
"M  c #4A4A7B",
"N  c #554678",
"B  c #455277",
"V  c #555477",
"C  c #494A6C",
"Z  c #655E65",
"A  c #664D7B",
"S  c #5B6671",
"D  c #63626B",
"F  c #666167",
"G  c #656677",
"H  c #70677C",
"J  c #64625E",
"K  c #80877F",
"L  c #3C4D88",
"P  c #3D528B",
"I  c #3D67A5",
"U  c #464A85",
"Y  c #42548A",
"T  c #4A568B",
"R  c #475785",
"E  c #465995",
"W  c #545592",
"Q  c #585386",
"!  c #654B85",
"~  c #635B8B",
"^  c #4C668B",
"/  c #556589",
"(  c #496595",
")  c #556993",
"_  c #567291",
"`  c #676788",
"'  c #6B7389",
"]  c #746C96",
"[  c #747495",
"{  c #6D6F91",
"}  c #495CA5",
"|  c #4C69A5",
" . c #5369A8",
".. c #5575AB",
"X. c #4B6BB5",
"o. c #546DB8",
"O. c #4C73B6",
"+. c #5576B7",
"@. c #4D78A8",
"#. c #757AAA",
"$. c #6777BB",
"%. c #785FA0",
"&. c #567AC1",
"*. c #4C76C2",
"=. c #8F5699",
"-. c #B1559C",
";. c #82768D",
":. c #A75CA4",
">. c #B457A5",
",. c #B867B7",
"<. c #BA76B8",
"1. c #AA71B2",
"2. c #9667B5",
"3. c #D55EB4",
"4. c #CC5CB2",
"5. c #CB78B8",
"6. c #9E6BC1",
"7. c #CB7CC4",
"8. c #758190",
"9. c #5687B9",
"0. c #538AB2",
"q. c #6D8EB2",
"w. c #5A8BC4",
"e. c #5A8CCC",
"r. c #5489C6",
"t. c #5895CD",
"y. c #5B8DD4",
"u. c #588BD5",
"i. c #5B92D4",
"p. c #5A94DA",
"a. c #5897D9",
"s. c #4E8FCB",
"d. c #7A87C6",
"f. c #7996CD",
"g. c #659CDD",
"h. c #6597D4",
"j. c #6A8DCC",
"k. c #54A3DC",
"l. c #5CA2DD",
"z. c #58A9DC",
"x. c #4FBFD7",
"c. c #74B4CA",
"v. c #76B7CC",
"b. c #65A3DC",
"n. c #78B7D4",
"m. c #70B1D3",
"M. c #5C9DE4",
"N. c #5C9DEB",
"B. c #579CE8",
"V. c #559AEE",
"C. c #629DE4",
"Z. c #639EEA",
"A. c #699DE7",
"S. c #629EF3",
"D. c #699DF3",
"F. c #778DE3",
"G. c #54A4E4",
"H. c #5CA3E4",
"J. c #5CA9E4",
"K. c #55A3EB",
"L. c #5CA2EB",
"P. c #59ABEA",
"I. c #5DA2F3",
"U. c #59A7F2",
"Y. c #5CBBEB",
"T. c #61A2E4",
"R. c #62A3EB",
"E. c #62AAEA",
"W. c #67A6E6",
"Q. c #68B6E6",
"!. c #7AB4E6",
"~. c #62A4F3",
"^. c #65A9F7",
"/. c #7AB5F5",
"(. c #71AFF1",
"). c #55C6D7",
"_. c #7AC3D9",
"`. c #74D0DB",
"'. c #7CDCE5",
"]. c #7CDAEA",
"[. c #7DDBF3",
"{. c #74C7E9",
"}. c #7EE1EC",
"|. c #7BE3F2",
" X c #5AC0E6",
".X c #87898D",
"XX c #8F868C",
"oX c #9698AB",
"OX c #8E97A8",
"+X c #9EACB5",
"@X c #A6A6A7",
"#X c #AEAEB8",
"$X c #D585BC",
"%X c #C681B8",
"&X c #8A98C9",
"*X c #86A6D6",
"=X c #90AED4",
"-X c #B2ADC2",
";X c #A9B3CD",
":X c #84B5EB",
">X c #86BAEA",
",X c #86B8F4",
"<X c #8BB4E7",
"1X c #DA85C3",
"2X c #CA84C4",
"3X c #CFA9CB",
"4X c #8BC7DC",
"5X c #B1C9D6",
"6X c #82DAE6",
"7X c #84DCEA",
"8X c #88D8EA",
"9X c #87DBF2",
"0X c #92CDF0",
"qX c #A8C6E3",
"wX c #A6D9EE",
"eX c #B8D9F5",
"rX c #ABDDF3",
"tX c #81E2EC",
"yX c #89E2EB",
"uX c #9AE2E9",
"iX c #88E0F2",
"pX c #9DE5F4",
"aX c #9BF1FF",
"sX c #A3E4F5",
"dX c #B9E3F5",
"fX c #BDEDF3",
"gX c #CCCBCC",
"hX c #CACAC5",
"jX c #D2CECB",
"kX c #CDCDD2",
"lX c #C8CBD5",
"zX c #D3CED7",
"xX c #CDD4DA",
"cX c #D4D3DB",
"vX c #D9D7DA",
"bX c #CCD1CB",
"nX c #DDDCE3",
"mX c #D3DBEC",
"MX c #D7D8E5",
"NX c #CBCFE5",
"BX c #F4D7E9",
"VX c #EBDCE9",
"CX c #DAE4E8",
"ZX c #D5E5F4",
"AX c #D9E8F9",
"SX c #DCF4F9",
"DX c #CFE8F5",
"FX c #E2E3E8",
"GX c #F5F6EE",
"HX c #E6EAF7",
"JX c #E3F4FC",
"KX c #E5F6F6",
"LX c #FDFDF5",
"PX c #F6FDFD",
"IX c #FDFEFC",
"UX c #F7F8F8",
/* pixels */
"z z z z z z z z z z z z z z z z m b b b e j c m g z x b y b 5 b 7 h h h v B q r z n N N x z g g 6 x v v z z z z g z z b b b z j ",
"z z z z z z z z z z z z z z z z z z b z j j c b g z n b t M ` { _ ^ M 6 x c r b c z x n v c j h b x v c z z z c z z z z b b z j ",
"z z z z z z z z z z z z z z z z k h z z c c z e c z n b e ` #X5X_.q.^ 6 4 z e b y e z z c m c j m z c z z z c c z z z z b z z g ",
"z z z z z z z z z z z z z z z z C h z z c c z e j z n N ` oXCXKXaX_.0.) n z z b y e e e z m z c m z g h z z m c z h z c c c z g ",
"z z z z z z z z z z z z z z z z v x z z z z b t g g 4 ` -XnXPXSXsX6X_.q./ c z M m e e e z m m z y z g z z m m y h h g j c z z g ",
"z z z z z z z z z z z z z z z z M x b b b b b b g 0 f { cXIXIXSXwX8X7Xn._ c g M m z e e z b b b r 0 g z n m m y h h j c r z z g ",
"z z z z z z z z z z z z z z z z b z z b b b b M c 0 0 ' xXIXIXSXsX7X|.n._ c h h x x z z z b z m q q z x M b z e h h j c c z z c ",
"z z z z z z z z z z z z z z z z z z z z b b b M c w r ' xXIXIXSXpXtXtXn.^ 0 7 7 h x c z z z x m q q c M n b z e x x v c c z z z ",
"z z z z z z z z c c c z z z z z h r y c h h z q f c 0 [ MXIXIXSXpXyXtXn.) 6 x r h j j j v z e y y c z n n b z e N x z m j z M n ",
"z z z z z z z z c c z z z z z z z e m z x v 0 0 k g 5 ] 3XBXBXMXqX;X;X&X~ 5 z c 0 r r c z z z y m z z x 6 b z c x z z z e z x n ",
"z z z z z z z z z z z z z z z z r z z z z c r y z g 4 A <.1X1X$X2X5.7.1.! e e z y y y r z z M b z z z g z x h k z z m e z z z n ",
"z z z z z z z z z z z z z z z z m z z z h z c B E E T ] <.7.<.1.1.,.,.2.W E ( T m y c z z b n n z z z g g V ' ` B 0 m c z z z n ",
"z z z z z z z z z z z z z z z z z m m x 6 5 e P ..j.u.f.lXcX=XF.f.f.f.f.e.t.w.+.T t z x x x x b z M z g f G -X-X/ w y m 0 z z n ",
"z z z z z z z z z z z z z z z z x c m z 6 6 Y @.*X,X,X0XdXeX!.L.z.J.J.L.E.E.T.i...T z z x x z z b b z V ` OXFXnXq.^ i m 0 h x z ",
"z z z z z z z z z z z z z z z z z z z z n T ..b.eXSXZXDX0X/.W.b.H.H.P.L.~.R.M.a.t.+.T z z z c c z z z ` #XvXPXHX4Xq.^ y z h z g ",
"z z z z z z z z z z z z z z z z g z x b T | e.0XHXLXLXAX/.V.N.b.T.R.~.~.S.N.M.M.J.t...R z r r y z 1 z ' xXIXIXKXdX=X^ e c c g g ",
"e z z z z e r r b b n x z j C k y g h T +.u.C.,XAXIXLXZX>XK.B.W.H.L.L.R.A.C.l.k.b.l.g.+.R 0 z y t 9 8 ' xXIXIXJXsXc.( e 0 c z N ",
"e z x z z c c c M b n n z c j j g z T ..y.M.T./.eXAXAXwX!.P.H.b.l.H.R.R.R.R.H.G.l.H.T.i.| R m c t N G oXFXIXIXSXsXn.0.R c r z N ",
"z x x x z z c c v z n m m y r y g T O.u.M.T.T.W./.,X>X!.E.L.H.g.k.H.R.R.L.L.K.G.H.H.L.L.a.O.R 1 b { -XnXUXLXIXJXpX6X_.q./ 0 0 z ",
"z v x z z z z e z z z c c t t U T  .i.H.H.H.M.C.V.V.L.L.L.L.L.N.l.T.A.R.L.K.K.L.R.M.M.L.I.a.| m b [ MXIXLXLXIXJXsX9X9X*X) 0 0 e ",
"0 z z z z c c y g g c c z b b W &.i.l.J.T.R.R.H.H.J.J.J.H.b.H.H.M.Z.A.Z.H.G.J.H.~.A.g.C.L.R.h.+.R ' cXIXLXLXIXJXsX8X7Xn.) x z y ",
"q g z z z c e e g c c r c z b W y.T.J.J.T.R.R.M.a.l.H.H.H.a.M.L.C.Z.C.C.M.H.H.H.D.A.A.g.C.^.T.e.i ' kXIXLXLXIXKXwX6XtXn.) g z c ",
"c c z z z z z z z c r q c z b W u.C.H.G.J.H.H.M.M.M.M.L.L.L.~.~.C.C.H.M.H.T.H.L.N.Z.C.C.M.R.H.s.i ' kXIXIXLXIXJXsX7X}.n.^ 0 e e ",
"c c z z z z z x x c q q c e e T 9.A.S.K.G.k.l.C.N.M.M.M.H.L.L.H.b.l.k.H.T.R.L.K.N.N.~.~.M.H.l.t.8.OXnXIXIXLXIXKXpX6X}._.0.R B e ",
"z z j h x x n M M z e 0 j 9 w B 9.R.I.P.H.M.Z.T.~.^.L.M.T.C.H.J.b.T.H.B.H.J.l.k.K.Z.Z.H.t.k.H.!.5XFXHXLXIXIXLXSXuX7X}.6X_.q.R e ",
"e 0 0 g x x n m b b z g 9 C ` [ h.R.I.L.M.M.Z.E.E.Q.!.!.b.a.H.J.E.R.N.N.H.H.z.Q.!.:XW.M.a.H.L.,XAXIXIXIXLXPXLXSXsX7X}.7X8Xc.) n ",
"r r 0 g x x z z b b b x f ' ;X5X!.T.N.N.M.N.L.E.x.4XeXeXn.k.H.A.L.N.N.N.L.l.Q.].fXeX:XN.L.I.B.:XAXIXIXLXLXPXLXJXsX'.].tXtXv.) 6 ",
"c c c z x z z z m b n n f [ 5XfX!.T.N.M.M.N.L.P.).`.fXdX!.G.H.A.L.N.Z.S.R.T.{.[.fXdX:XN.L.I.B.:XAXIXIXLXLXIXIXSXsX6X6X7X}.c.) 6 ",
"m z z x x z z z e b b n z ) *X4XQ.l.M.H.M.L.L.J. X`.'.[.(.Z.M.k.H.E.~.S.R.E.Q.{.].0X(.L.M.B.N.>XAXIXIXLXLXIXIXJXsX8X8X8X8Xc.) n ",
"z z M x x z z c 0 z b b m ( t.Q.b.H.T.T.H.L.L.J.Q.Y.Y.Y.^.D.L.z.l.T.R.Z.R.E.E.Q.Y.Q.E.H.a.B.Z.:XZXUXPXPXLXIXIXJXsX6X6X8X8Xc.) 5 ",
"z z z n x z z r B c z e t ( r.J.H.L.M.l.H.L.I.R.G.H.E.R.L.L.J.l.l.H.H.M.L.R.P.P.U.T.H.H.H.L.R.,XAXIXIXPXIXIXIXSXsX8X'.yX7Xc.) e ",
"e z z x x z r r B q z z e ( r.E.L.~.B.H.E.I.S.Z.L.Z.A.W.C.H.P.P.H.H.M.M.L.H.J.H.C.W.H.k.H.V.N.,XAXIXIXPXPXIXIXJXrX8X'.}.'.c.) e ",
"z z b b b b z z y z g g m ( w.W.^.L.l.l.E.~.R.C.I.I.I.R.H.H.T.L.E.l.k.H.I.U.K.G.Z.E.L.L.H.P.N.,XZXIXIXLXLXPXLXKXeX8X[.7X6Xc.) t ",
"z z z b b z z z c c g g m E &.y.p.p.i.i.p.y.w.9.&.r.e.w.9.+.9.w.y.p.a.p.M.p.y.e.y.i.p.i.i.u.u.:XZXIXIXPXPXPXLXKXeX9X[.7XyXv.) b ",
"z z z z z g g z e c h h e L X.*.O.O.+.+.+. .i w w w q q j j w B | +.O.X.o.o.o.O.o.O.X.o.O.X.X.d.mXIXIXPXPXPXLXJXsX9X[.tXyXv.) z ",
"z c c z g g h h c z h h e U } } Y Y Y Y U e : $ * . $ X + + O ; b T P P T W  .X.o.o.o.+.O.X.X.d.mXIXIXIXPXIXLXSXpX9X[.tXyXv./ h ",
"z z c c g g j j b b z x z U Y P 1 , : , , , % . & X + + & @ @ ; : , < < : c +.M.e.i.p.p.a.u.y.*XZXIXIXIXLXIXLXSXuX[.[.9XyXc./ g ",
"z z c c c z z z b z 4 N ` [ q.#.H D Z a > X + + % + o X X > a G F l l Z F G ..s.h.W.R.L.H.K.N.>XZXIXIXUXIXIXLXJXuX[.9X9X7Xc.^ 0 ",
"z z z z c z z b b z f ' -XMXmXNXkXkXjX@Xa . $ > $ % $ X . a @XbXgXhXgXjXgX+X_ i j.g.R.Z.H.L.C.:XAXIXIXLXLXLXLXKXuX6X9X9X7Xm.( 0 ",
"z m z z z z z b 2 M ` oXnXIXIXPXIXIXIXCX.Xa > X o o o > a .XCXIXIXIXIXUXIXnX.XG @.9.a.M.H.B.M.:XZXIXIXIXLXLXLXKXuX6X8X9X7Xm.( r ",
"b M v v z M z z 4 ` #XnXGXLXLXLXIXIXIXPXCX+Xa o X @ X a @XFXIXIXPXIXIXIXIXGXCX@XG i s.U.H.k.l.<XZXLXLXLXLXIXIXSXsX}.'.6X7Xv.) e ",
"b M z c c z z V ` oXnXPXLXLXLXLXLXGXvXbXbX#X8.a > % a ;.#XkXkXcXHXPXLXLXIXIXIXvX8._ t.K.L.G.k.>XAXIXPXIXIXIXLXKXuX'.'.7XiXn./ 4 ",
"m b g g g 0 g ` #XnXUXLXPXLXLXLXIXvXXXZ l ;.#X#Xa a @X#X.XF a .XvXIXIXLXLXIXLXGXcXqX(.I.R.g.a.,XAXIXLXIXIXPXIXKXpXtX'.9X9Xv./ g ",
"m b g g g 9 f [ cXIXLXPXIXIXIXLXIXgXZ O O G cXzXZ Z zXkXD .   d gXIXIXLXLXLXLXLXLXDX/.V.A.g.T./.eXHXIXIXIXIXIXJXsX'.|.9X>Xq./ g ",
"b m z g j 0 f [ cXIXIXIXIXPXPXIXLXhXa = = D vXbXF Z jXzXl =   l gXIXIXLXUXLXLXLXLXZX,XI.T.J.P.P.Q.qXSXIXLXLXLXKXpXtX|.{.$.T M g ",
"e m z c c g g [ cXIXLXPXPXIXPXIXLXkX` , < G cXgXZ F jXcX` < , ' zXIXIXLXLXLXLXLXLXZX<Xu.e.t.a.u.h.=XNXBXBXVXBXcXqX=X4X*X%.N x 0 ",
"e z c c z z g ] cXIXIXPXPXIXUXPXIXNX#.L U #.mXlXZ J hXMX#.U U [ cXIXIXLXPXIXIXIXIXMXf.X.X.O.o.$.6.<.5.$X1X$X$X%X5.5.<.<.,.=.! h ",
"c 0 z c z z z ] cXIXLXGXGXLXPXIXPXZX=Xq.d.=XAXkXl d gXHX=Xd.$.=XFXIXIXIXPXIXIXIXIXmX&X .o.O.X.$.6.,.,.,.7.2X5.$X$X5.>.-.>.=.Q c ",
"v f j q m 5 4 ;.vXIXIXIXIXIXPXIXIXPXnXmXMXHXIXgXJ F gXPXHXNXmXmXUXIXPXPXIXUXLXLXLXJX*Xe.a.i.s.p.F.F.f.&XNXBXBXBXBX3X;.N N A N 6 ",
"z z c e c z h ` #XMXUXLXLXLXLXLXIXIXIXIXIXUXnX@Xa a @XvXPXIXIXIXPXIXIXIXIXIXIXGXvX;Xm.H.K.H.H.T.K.H.n.qXAXIXIXIXIXnXoX` c g z n ",
"z b b e r j g V / OXMXPXLXLXIXIXLXLXIXIXIXnX.Xa % + a .XvXLXLXLXIXIXPXIXIXIXIXvXXX/ e.I.I.Z.W.C.N.!.eXAXPXIXIXIXIXUXMX+X/ e t m ",
"b b b z c q r r 1 ` +XmXZXZXmXNXkXgXkXkXkX#Xl o X X . a @XhXjXjXhXgXlXkXgXhXgX#XV i r.~.S.D.A.C.B.<XZXIXLXIXIXPXUXLXLXcX[ b t m ",
"U M h v m m y u b M ` q.m.*X&X#.G D D D D l > % X % $ & a a Z Z J F D D Z l l S 0.9.k.U.L.Z.N.L.K.>XZXLXLXIXIXLXUXLXLXvX] 5 b e ",
"U v k C M U y r M x 4 y O.r.&.} w < o o X * & & % % % % X O O O # O X o , 9 w p t.E.H.J.M.Z.M.N.R.<XAXLXLXLXLXUXPXLXLXcX] 5 e u ",
"n x h z z b e c e f , 9 E O.y.u.( u < - X + # # # X o o @ % % & - X o , ( 9.r.w.a.T.M.M.H.T.R.Z.C.<XAXIXIXIXPXPXPXLXIXNX[ z e q ",
"5 x n 5 z z g z q 8 > > c | i.G.&.| L , - @ # # # + @ > > % + & 8 s s / e.^.^.R.W.a.H.H.G.G.E.g.C.!.eXJXPXIXIXIXLXUXnX-X` 0 h v ",
"x h k k j z z h z 1 > ; : R r.P.A.y.| y , - % ; ; ; o @ % # @ s I 9.r.u.R.^.R.Z.T.H.L.P.L.L.E.H.R.(.Q.0XSXPXPXLXLXnXOX` V h g g ",
"n v j j c z x x n 4 > @ o w ( 9.j.$. .R 8 > : : : , : : , : , f @.9.w.w.e.e.r.e.u.e.w.9.9.9.0.9.w.w.9.f.NXBXBXBXBX3X{ 0 g z z c ",
"b z z e z b b n N 4 : o - , 9 B R R R m g 4 4 f 8 9 0 0 9 1 g z R ^ ) ( E E E ) O. .U g j q w j T T Y { <.1X1X1X$X1.! z m M b b ",
"b e e e c m b b n 4 , : > % + # , 0 c z z z z z j j B m r e m m z z n n z z b n W T 5 : ; # + ; 1 z c ! :.3.3.4.4.:.! b m c b b ",
"z e e y m m m b g z f , > . * & 1 h M m m e e e c z m m r c z h m z x z z 0 z z z Y E y : . + > 9 z z ! -.3.3.3.3.:.! z r e z b ",
"z z z c c c z z q c z f , % > 3 g z m m c c c c z z x c g j j g z z z z g 0 z z h U E P 9 > > , g x x ! =.-.-.>.:.=.! z z c c c ",
"x x z z j j z z j z z z 9 8 f f z m m m c c z z z x x x z c c z x x x z j c c z h n U U z f f 9 w y m M N A V A ! ! n z 4 4 j B ",
"N n n z g g g z C x U m e r m U z z z e c c x x z x x n z b b b c z 0 w u i u u z v z b U m q q q c z c j 9 w w z m m n h h j q "
};
